<svg xmlns="http://www.w3.org/2000/svg">
<defs>
<font id="kissitademo" horiz-adv-x="241" >
  <font-face 
    font-family="kissita demo"
    font-weight="400"
    font-stretch="normal"
    units-per-em="1000"
    panose-1="2 0 5 6 0 0 0 2 0 3"
    ascent="800"
    descent="-200"
    x-height="290.5"
    cap-height="651"
    bbox="-228.091 -232.6 1673.8 732.8"
    underline-thickness="50"
    underline-position="-200"
    unicode-range="U+000D-FB00"
  />
<missing-glyph horiz-adv-x="1604" 
d="M353 292q8 20 29.5 15.5t16.5 -27.5q-26 -84 -27 -103q-3 -59 67 16q20 22 37 44q-20 13 -30 37q-13 31 6.5 73t53.5 52q38 10 40 -31q0 -48 -46 -121q3 -1 24 -6.5t26.5 -13t1.5 -22.5q-23 -85 -23 -86q-6 -31 30 -6q50 37 108 132l16 62q77 287 164 318q36 13 46 -16
q7 -19 2 -54q-8 -64 -50.5 -138.5t-118.5 -128.5q-15 -58 -22 -94q-11 -50 -11 -71q0 -15 5.5 -20.5t15 -1t16 10t15.5 13.5q29 26 61 65.5t43 55.5q32 61 111 46q8 20 29.5 15.5t16.5 -27.5q-26 -84 -27 -103q-3 -62 75 24q23 27 36 45v1q4 9 11 32q6 19 30 18
q19 -1 19 -15q0 -2 -1 -5l-18 -63q-13 -45 -11 -45q3 0 21 26q43 61 64 82q23 26 45.5 14.5t16.5 -51.5q-3 -21 -12.5 -57t-12.5 -50q-4 -22 0 -26.5t25 16.5q17 19 39 49t35.5 49.5t16.5 24.5q17 29 45 43t62 5q24 99 64.5 201t89.5 127q38 20 48.5 -3t3.5 -63
q-10 -66 -51.5 -142.5t-107.5 -125.5q-27 -88 -19 -126q5 -26 35 0q38 31 76 84q3 4 7 3.5t5.5 -3.5t-0.5 -7q-40 -57 -75 -85q-47 -37 -73 -9q-19 19 -17 63q-24 -40 -44 -53q-31 -18 -48.5 -4t-15.5 47q-39 -56 -65 -84q-40 -42 -65 -25q-6 4 -9 12.5t-3 20.5t0.5 24
t3.5 27.5t5 24.5t5.5 22.5t3.5 15.5q6 30 1 32q-3 2 -15 -12q-18 -21 -43.5 -57t-32.5 -45q-19 -23 -36 -18.5t-17 33.5q0 21 6 43q-54 -65 -85 -77q-44 -18 -56.5 11t-1.5 73q-14 -30 -29 -46q-16 -17 -34 -18t-31 19q-8 13 -6 35q-53 -68 -84 -95q-23 -20 -37 -25
q-32 -13 -49 9q-21 27 -9 110q-51 -76 -93 -106q-26 -20 -48 -19q-28 1 -32 37q-1 17 1.5 32.5t10 37t8.5 24.5q3 9 -3 11l-15 6q-20 -28 -49 -57.5t-50 -38.5q-44 -18 -56.5 11t-1.5 73q-14 -30 -29 -46q-16 -17 -34 -18t-31 19q-9 17 -6 40q-27 -26 -85 -39

<glyph glyph-name="g_j" unicode="gj" horiz-adv-x="386" 
d="M-125 -156q-17 65 40 143q42 58 155 122l24 94q-8 -14 -16 -25q-34 -45 -66 -45q-24 0 -31 28q-6 25 3.5 53t27.5 48q41 48 101 26l1 3q4 13 16 16.5t22 -3t8 -18.5q-10 -61 -33 -142q72 44 112 99l9 32q6 20 30 19q19 -1 19 -17l-1 -5q-11 -52 -38 -154q77 64 128 128
q2 3 6 2.5t5.5 -4t-0.5 -7.5q-13 -16 -26.5 -31t-22 -24.5t-25.5 -24.5t-21.5 -19t-25.5 -22t-24 -20q-47 -166 -96 -223q-39 -46 -62 -39q-16 6 -14 40q3 43 36 96t78 94q4 14 37 146q-40 -43 -109 -86q-39 -140 -64 -196q-52 -112 -121 -123q-49 -7 -62 39zM-77 -181
q33 7 67 72q36 68 74 199q-99 -59 -138 -111q-53 -73 -38 -132q10 -33 35 -28zM33 161q10 -3 34 25q22 25 42 88q-33 5 -58 -28t-25 -67q0 -17 7 -18zM123 -115q31 50 62 150q-34 -34 -59.5 -77t-30.5 -77t5 -27q7 4 23 31zM287 363q11 0 19 -8t8 -19t-8.5 -19t-19.5 -8
q-10 0 -17.5 8t-7.5 19t7.5 19t18.5 8z" />
    <glyph glyph-name="p_j" unicode="pj" horiz-adv-x="389" 
d="M-74 -127q-4 51 11 126.5t41 167.5t32 122q2 12 15 16.5t24 -1t9 -18.5l-6 -26q49 54 85 24q39 -34 3 -108q36 9 58 23.5t44 43.5l9 32q6 20 30 19q19 -1 19 -17l-1 -5q-11 -52 -38 -154q77 64 128 128q2 3 6 2.5t5.5 -4t-0.5 -7.5q-13 -16 -26.5 -31t-22 -24.5
t-25.5 -24.5t-21.5 -19t-25.5 -22t-24 -20q-47 -166 -96 -223q-39 -46 -62 -39q-16 6 -14 40q3 43 36 96t78 94q5 18 37 148q-20 -22 -43 -33.5t-60 -19.5q-19 -28 -43 -37q-33 -13 -46 1q-12 14 21 30q14 7 34 13q18 46 15 83q-4 56 -52 -2l-15 -20q-19 -76 -25 -98
q21 -64 20 -140.5t-24 -139.5q-11 -26 -21 -38q-11 -12 -27 -9q-19 5 -29.5 25.5t-12.5 45.5zM13 104q-54 -194 -47 -253q4 -34 13 -34q3 0 6 4q9 9 17 33q18 48 22.5 112t-11.5 138zM126 -115q31 50 62 150q-34 -34 -59.5 -77t-30.5 -77t5 -27q7 4 23 31zM290 363
q11 0 19 -8t8 -19t-8.5 -19t-19.5 -8q-10 0 -17.5 8t-7.5 19t7.5 19t18.5 8zM87 148q-17 -6 -24 -10q-10 -7 -3 -8q2 0 5 1q13 4 22 17z" />
    <glyph glyph-name="q_j" unicode="qj" horiz-adv-x="394" 
d="M269 129q-39 -148 -70 -213q-53 -106 -117 -114q-47 -5 -60 40q-12 41 15 99q-1 46 14.5 111.5t39 138.5t25.5 81q-4 -6 -16 -27t-19.5 -33t-20 -26t-23.5 -20q-19 -9 -35 1.5t-15 37.5q3 51 43 77t88 18q2 3 6.5 11.5t7.5 12.5q7 13 27 9.5t15 -24.5q-12 -52 -59 -212
q-1 -4 -9.5 -33t-12.5 -45q46 50 124 95q11 43 23.5 97.5t15.5 63.5q6 20 30 19q19 -1 19 -17l-1 -5q-11 -53 -30 -123q82 49 120 97q2 3 6 2.5t5.5 -4t-0.5 -7.5q-37 -47 -136 -108zM211 95q-78 -48 -125 -103q-11 -55 -7 -88q4 -32 12 -33q3 0 7 3q2 2 5.5 1t5 -4t-0.5 -7
q-9 -15 -32 -6q-29 11 -37 52q-11 -38 -3 -64q10 -37 41 -21q67 32 134 270zM107 284q-25 -4 -47.5 -26t-28.5 -48q-2 -11 0 -17t7.5 -5.5t10.5 6.5q9 10 19.5 26t22 36t16.5 28zM304 363q11 0 19 -8t8 -19t-8.5 -19t-19.5 -8q-10 0 -17.5 8t-7.5 19t7.5 19t18.5 8z" />
    <glyph glyph-name="y_j" unicode="yj" horiz-adv-x="403" 
d="M123 285q5 23 28 21q20 -2 21 -18v-5q-11 -55 -31 -134q73 43 114 91l10 35q6 20 30 19q19 -1 19 -17l-1 -5q-11 -52 -38 -154q77 64 128 128q2 3 6 2.5t5.5 -4t-0.5 -7.5q-13 -16 -26.5 -31t-22 -24.5t-25.5 -24.5t-21.5 -19t-25.5 -22t-24 -20q-47 -166 -96 -223
q-39 -46 -62 -39q-16 6 -14 40q3 43 36 96t78 94q2 7 37 147q-38 -37 -112 -82q-14 -52 -24.5 -85.5t-33.5 -93t-52.5 -97t-62.5 -48.5q-26 -9 -46.5 0.5t-27.5 35.5q-17 65 39 146q25 36 62.5 65t93.5 63q16 56 29 117q-46 -73 -73 -90q-19 -13 -35 -7.5t-18 28.5
q-4 37 22 114q7 22 30 21q18 -1 18 -17q0 -3 -1 -7q-20 -81 -22 -92q-3 -30 15 -14q28 25 65 96zM-51 -176q61 36 129 271q-102 -62 -139 -116q-51 -76 -36 -133q11 -42 46 -22zM140 -115q31 50 62 150q-34 -34 -59.5 -77t-30.5 -77t5 -27q7 4 23 31zM304 363q11 0 19 -8
t8 -19t-8.5 -19t-19.5 -8q-10 0 -17.5 8t-7.5 19t7.5 19t18.5 8z" />
    <glyph glyph-name="z_j" unicode="zj" horiz-adv-x="398" 
d="M11 238q-2 -3 -6 -2.5t-5.5 3.5t0.5 7q31 43 75 49q30 4 53.5 -12t19.5 -44q-1 -6 -2.5 -12t-5 -11t-5.5 -9t-7.5 -9t-8 -7.5t-9.5 -7t-9 -6t-10.5 -6.5t-9.5 -6q-10 -6 2 -11q35 -15 47 -37q79 50 121 125l9 33q6 20 30 19q19 -1 19 -17l-1 -5q-11 -52 -38 -154
q77 64 128 128q2 3 6 2.5t5.5 -4t-0.5 -7.5q-13 -16 -26.5 -31t-22 -24.5t-25.5 -24.5t-21.5 -19t-25.5 -22t-24 -20q-47 -166 -96 -223q-39 -46 -62 -39q-16 6 -14 40q3 43 36 96t78 94q12 45 34 135q-37 -54 -103 -94q25 -67 -30.5 -145.5t-123.5 -99.5q-27 -11 -54 -0.5
t-27 40.5q0 53 63 110q14 13 32 26t30 20.5t35 21t32 18.5q-7 28 -37 39q-11 4 -15 10t-1 13t12 13q59 41 61 78q0 14 -9.5 22t-23.5 8q-38 0 -70 -41zM96 81q-96 -57 -122 -81q-57 -53 -57 -99q0 -12 6 -19t17 -6q36 4 73.5 41t60.5 83.5t22 80.5zM135 -115q31 50 62 150
q-34 -34 -59.5 -77t-30.5 -77t5 -27q7 4 23 31zM299 363q11 0 19 -8t8 -19t-8.5 -19t-19.5 -8q-10 0 -17.5 8t-7.5 19t7.5 19t18.5 8z" />
    <glyph glyph-name="K_j" unicode="Kj" horiz-adv-x="660" 
d="M238 316q12 -10 20 -25.5t12.5 -38.5t7 -39.5t5 -47.5t3.5 -44q9 -101 25 -121q15 -19 45 7q28 23 61.5 71.5t49 76t46.5 87.5l9 33q6 20 30 19q19 -1 19 -17l-1 -5q-11 -52 -38 -154q77 64 128 128q2 3 6 2.5t5.5 -4t-0.5 -7.5q-13 -16 -26.5 -31t-22 -24.5t-25.5 -24.5
t-21.5 -19t-25.5 -22t-24 -20q-47 -166 -96 -223q-39 -46 -62 -39q-16 6 -14 40q3 43 36 96t78 94q11 40 31 122q-77 -145 -134 -190q-17 -13 -35 -19t-36.5 0t-31.5 25q-21 32 -20.5 96t5.5 109t-17 81q-70 -261 -168 -317q-25 -16 -50 -11t-30 36q-9 62 47 150
q52 81 146 147q75 279 58 324q-6 16 -22 5q-20 -13 -37 -49q-20 -42 -21.5 -83t26.5 -78q7 -7 -2 -11q-5 -2 -8 1q-21 23 -27 56t-0.5 62.5t19.5 58.5q18 38 42 55q29 20 51 -4q53 -59 -11 -293q97 62 163.5 122.5t107.5 138.5q2 4 6 4t6.5 -3t0.5 -7q-47 -86 -117 -148.5
t-172 -127.5zM170 272q-82 -61 -129 -133q-53 -83 -45 -140q3 -23 16.5 -24.5t29.5 14.5q66 61 128 283zM397 -115q31 50 62 150q-34 -34 -59.5 -77t-30.5 -77t5 -27q7 4 23 31zM561 363q11 0 19 -8t8 -19t-8.5 -19t-19.5 -8q-10 0 -17.5 8t-7.5 19t7.5 19t18.5 8z" />
    <glyph glyph-name="a_a" unicode="aa" horiz-adv-x="482" 
d="M8 259q35 48 103 33q8 20 29.5 15.5t16.5 -27.5q-26 -84 -27 -103q-3 -64 79 30l13 15q5 16 15 32q36 58 115 45l4 8q4 9 17.5 11.5t24 -3t7.5 -16.5l-9 -27t-10.5 -33.5t-10.5 -37t-9 -36.5t-5 -32.5t1 -25.5q3 -13 13 -4q39 34 107 143q2 4 6.5 3.5t6 -3.5t-0.5 -7
q-3 -5 -14.5 -23.5t-17 -27t-17 -25.5t-20 -27.5t-20 -23.5t-23.5 -22q-20 -15 -39.5 -1.5t-22.5 37.5q-1 19 -1.5 28t3.5 27t6 26.5t7.5 25.5t7.5 24q-26 -57 -55 -89q-30 -30 -51 -19.5t-19 46.5q-44 -50 -70 -60q-38 -15 -56 8t-2 76q-14 -30 -29 -46q-16 -17 -34 -18
t-31 19q-9 20 -5 43t17 42zM344 286q-34 0 -56.5 -28t-21.5 -66q1 -49 73 84q4 9 5 10zM106 277q-27 0 -48.5 -21t-26.5 -48q-2 -12 2 -22.5t15 -3.5q25 15 58 95z" />
    <glyph glyph-name="b_b" unicode="bb" horiz-adv-x="482" 
d="M229 555q5 35 -2 54q-9 23 -37 20q-26 -3 -51.5 -33t-46.5 -76.5t-34.5 -82.5t-24.5 -73q-43 -147 -60 -218q-5 -19 15 -21q23 -2 33 17l13 26q35 70 55 92q20 24 27 2q12 -32 -6 -81q-45 -12 -60 -27t-1 -26q15 -12 46 0q34 13 51 47q45 9 95 78q-10 -38 -18 -77
q-2 -9 8.5 -13.5t23 -2t15.5 10.5q25 43 58 71q12 11 19.5 8.5t7.5 -17.5q0 -28 -14 -72q-61 -29 -82 -60q-13 -21 -4.5 -32.5t31.5 -9.5q35 3 65.5 39.5t41.5 75.5q6 2 22.5 9t22.5 10t18 9.5t20.5 15t16.5 19.5q4 5 -1.5 9.5t-9.5 -0.5q-26 -36 -84 -52q7 28 2 54
q-6 26 -24.5 29.5t-38.5 -10.5q-27 -16 -57 -57l28 105q77 57 119.5 133t50.5 140q4 33 -2 54q-9 24 -34 18q-83 -18 -163 -280q-12 -37 -28 -91q-57 -84 -99 -98q19 52 0 87.5t-57 5.5q-8 -6 -16 -15q-18 -19 -44 -69l24 88q75 54 118 128.5t52 138.5zM66 310
q54 189 94 257q19 32 33 43q16 12 21 -4q6 -16 1 -50q-8 -58 -45.5 -126t-103.5 -120zM315 338q56 190 95 261q0 1 1 2q41 67 51 36q7 -16 2 -48q-7 -57 -44.5 -127t-104.5 -124zM334 142q-19 -44 -42 -60q-20 -14 -26 -6q-4 5 5 18q17 24 63 48zM103 164q-13 -23 -32 -27
q-8 -2 -11 1t4 9q13 9 39 17z" />
    <glyph glyph-name="c_c" unicode="cc" horiz-adv-x="354" 
d="M286 280q3 -3 1.5 -7t-5 -5t-6.5 2q-11 12 -33 -6q-18 -16 -30 -48.5t-10 -57.5q1 -17 10.5 -22t22.5 -0.5t24 11.5t19 14q41 37 75 85q2 4 6.5 3.5t6 -3.5t-0.5 -7q-24 -36 -59.5 -72t-64.5 -46q-25 -11 -51 -1t-31 41q-3 20 0 40q-34 -35 -66 -53q-16 -9 -34.5 -13.5
t-38 0.5t-28.5 22q-17 33 0.5 75.5t48.5 60.5q39 23 69 -7q5 -5 -2 -11q-5 -1 -8 1q-14 12 -32.5 -5.5t-29.5 -46.5t-9 -50q4 -41 54 -15q49 25 89 80q20 38 55 52q37 13 58 -11z" />
    <glyph glyph-name="d_d" unicode="dd" horiz-adv-x="492" 
d="M355 308q86 308 164 334q20 7 24.5 -8.5t-2.5 -32.5q-19 -72 -63 -172q-39 -88 -83 -154q-47 -169 -47 -233q0 -10 2 -13t9 2q23 20 67.5 96.5t65.5 118.5q2 4 6 4.5t6.5 -2.5t0.5 -7q-18 -39 -65 -119t-76 -104q-17 -11 -30 -2t-18 29q-13 53 7 140q-20 -20 -43 -26
q-24 -6 -39.5 10t-13.5 44q-18 -30 -46 -59q-16 -16 -34 -20.5t-37 11.5q-19 19 -17 63q-24 -40 -44 -53q-31 -19 -50 -2t-13 52q7 46 41.5 73.5t79.5 15.5q24 99 64.5 201t89.5 127q38 20 48.5 -3t3.5 -63q-10 -66 -51.5 -142.5t-107.5 -125.5q-27 -88 -19 -126q1 -8 5 -11
t9.5 -1.5t10.5 4.5t10 8q18 18 64 86q12 33 43 51t78 9zM160 311q58 47 93.5 117t45.5 130q6 38 1.5 50t-17 1t-30.5 -42q-38 -65 -93 -256zM352 296q-50 0 -74 -51q-19 -37 -7 -57q15 -25 58 22q11 45 23 86zM408 323q32 56 57 112q44 99 63 170q8 32 -10 5q-8 -13 -20 -35
q-41 -79 -90 -252zM96 243l7 36q-35 5 -59 -37q-9 -15 -12 -37.5t7 -31.5q6 -2 14 4.5t17 20.5t14.5 23.5t11.5 21.5z" />
    <glyph glyph-name="h_h" unicode="hh" horiz-adv-x="494" 
d="M226 556q-7 -64 -48.5 -139t-116.5 -130l-26 -102q41 66 65 89q18 20 37.5 14t16.5 -37q-2 -27 -13.5 -70.5t-14.5 -62.5q-3 -17 4 -16q7 2 26 23q24 26 53 65.5t37 53.5q35 146 84 269t97 143q13 4 23 5.5t15.5 -5t9 -13t3.5 -18t-0.5 -21t-2.5 -22t-4 -20t-4 -15.5
q-19 -65 -64.5 -131.5t-87.5 -99.5q-13 -45 -41 -173q54 96 69 111q21 21 40 12t16 -37q-3 -26 -21 -104q-17 -81 -18 -89q-1 -27 21 7l2 4q19 31 37 63t39.5 72t34.5 64q3 4 7 4t6 -3.5t0 -7.5q-12 -20 -44 -82t-53 -96q-30 -49 -42 -57q-11 -8 -26.5 -1.5t-20.5 23.5
q-4 21 -5 36.5t4.5 43t10 45t11.5 41.5t9 33q5 22 -8 5q-19 -25 -76 -127q-5 -10 -17 -12.5t-21.5 2.5t-8.5 15q2 26 18 99q-35 -50 -71 -92q-28 -30 -43 -34q-26 -5 -34 18q-13 33 16 143q4 17 1.5 17.5t-14.5 -14.5q-29 -36 -67 -105q-8 -15 -20.5 -18.5t-21 3.5t-6.5 18
q83 421 187 479q14 10 32.5 8.5t25.5 -19.5q8 -20 3 -55zM68 309q65 53 101 122t43 127q4 31 -2 48q-4 15 -18 7q-16 -10 -35 -45q-36 -66 -89 -259zM321 339q56 50 105.5 145t36.5 152q-7 31 -46 -28l-6 -10q-37 -67 -90 -259z" />
    <glyph glyph-name="i_i" unicode="ii" horiz-adv-x="318" 
d="M170 120q-2 -14 3 -16.5t17 7.5q15 12 34.5 31.5t30.5 31.5t35 39.5t28 32.5q8 8 12 -1q2 -4 -1 -8q-7 -8 -29 -33.5t-34.5 -39t-31.5 -33t-35 -31.5q-28 -22 -49 -15.5t-24 34.5q-4 28 21 104q-54 -60 -93 -81q-23 -13 -43 -9.5t-25 23.5q-8 29 23 118q7 21 31 18
q19 -2 18 -17q0 -3 -1 -5q-23 -75 -27 -89q-8 -33 15 -24q33 12 92 77q18 21 22 29q7 17 31 16q20 -1 19 -15q0 -2 -1 -4q-31 -96 -38 -140zM204 357q11 0 19 -7.5t8 -18.5t-8 -19t-19 -8t-19 8t-8 19t8 18.5t19 7.5zM54 363q11 0 18.5 -7.5t7.5 -18.5t-8 -19t-19 -8
t-18.5 8t-7.5 19t8 18.5t19 7.5z" />
    <glyph glyph-name="j_j" unicode="jj" horiz-adv-x="290" 
d="M20 129q-39 -148 -70 -213q-53 -106 -117 -114q-22 -2 -39 7.5t-21 32.5q-6 39 21 93q56 110 174 179q11 43 23.5 97.5t15.5 63.5q6 20 30 19q19 -1 19 -17l-1 -5q-11 -53 -30 -123q37 22 74 60.5t56 78.5q4 18 28 18q20 -1 21 -16q1 -2 0 -5q-19 -79 -41 -158
q95 72 127 119q6 8 12 1q4 -3 0 -8q-6 -8 -12.5 -16.5t-12 -15t-14.5 -15t-13.5 -13.5t-15 -13.5t-14.5 -12t-16.5 -13t-15 -12t-16.5 -12.5t-16 -12q-67 -234 -133 -285q-11 -8 -22.5 -14t-24.5 -5t-17 15q-3 17 4 46q11 45 46 102.5t90 110.5q23 78 44 168
q-50 -73 -123 -113zM-38 95q-106 -68 -156 -167q-24 -49 -19 -82q3 -19 16 -23.5t25 2.5q67 32 134 270zM90 45q-87 -91 -111 -185q-13 -52 4 -41q6 5 17 20q45 62 90 206zM46 363q11 0 19 -8t8 -19t-8.5 -19t-19.5 -8q-10 0 -17.5 8t-7.5 19t7.5 19t18.5 8zM196 382
q11 0 18.5 -8t7.5 -19t-7.5 -19t-18.5 -8t-19 8t-8 19t8 19t19 8z" />
    <glyph glyph-name="k_k" unicode="kk" horiz-adv-x="470" 
d="M232 555q-9 -65 -51.5 -139.5t-117.5 -127.5q-18 -66 -26 -99q28 50 51 78q35 41 53 18q15 -21 -1 -57q-15 -35 -51 -47q5 -63 25 -77q11 -8 24 5q24 24 82 128q34 136 81.5 254t96.5 155q12 9 24 13.5t24.5 1t18.5 -18.5q8 -21 5 -57q-5 -62 -53 -145t-128 -140
q-33 -118 -44 -168q53 85 58 91q39 49 63 26q19 -19 9 -56q-12 -38 -49 -50q0 -74 14 -101q9 -16 21 3q24 39 61 109.5t48 91.5q2 4 6 4t6.5 -3.5t0.5 -7.5q-12 -22 -50.5 -96.5t-64.5 -113.5q-16 -23 -37 -18t-31 32q-16 44 -16 91q0 10 5 11q38 7 50 45q9 26 -2 35
q-9 7 -26 -15q-7 -10 -71 -115q-7 -11 -19.5 -14.5t-21.5 2t-8 16.5q3 28 17 88q-39 -68 -61 -89q-15 -14 -33 -15.5t-34 14.5q-23 24 -23 81q0 4 4 6q37 11 51 51q10 26 -1 28q-7 1 -19 -15q-16 -21 -65 -106q-7 -12 -19 -15t-21 3t-8 16q10 68 35 161.5t71.5 194.5
t94.5 122q38 17 50 -15q6 -19 2 -54zM295 322q70 54 112.5 130.5t48.5 134.5q3 33 -4 49q-10 23 -29 3.5t-29 -40.5q-52 -99 -99 -277zM70 310q66 53 104 121.5t45 124.5q3 34 -2 49q-6 18 -23 3q-52 -45 -124 -298z" />
    <glyph glyph-name="m_m" unicode="mm" horiz-adv-x="694" 
d="M576 78q50 50 118 168q2 4 6 4t6 -3.5t0 -7.5q-67 -120 -123 -173q-21 -19 -40 -3t-21 49q-1 25 6.5 63.5t16 72t9.5 38.5q1 10 -7 -3q-4 -7 -15 -29q-38 -74 -51 -78t-24.5 4t-10.5 30q2 25 2 42t-7 7q-13 -20 -30 -55.5t-28 -52.5q-14 -24 -35 -18t-18 39q1 17 14 62
q-75 -122 -109 -145q-15 -10 -29.5 -4t-19.5 24q-7 28 15 127q8 32 4.5 33.5t-16.5 -17.5q-2 -3 -5 -8q-5 -7 -15 -23.5t-18.5 -29t-12.5 -17.5q-11 -13 -22 -13t-17.5 13.5t-3.5 37.5q3 20 0 23.5t-15 -13.5q-8 -11 -45 -73q-14 -24 -38.5 -21t-19.5 32q11 56 32 114
q8 20 31 17q18 -3 17 -18q-1 -1 -1 -3q-32 -103 -29 -103q2 0 12 18q24 43 45 66q13 15 29.5 13.5t21.5 -20.5q6 -20 0 -50q3 4 26 40t35 48q21 21 39 6.5t11 -52.5q-2 -10 -12.5 -54t-12.5 -67q0 -8 2 -11t5.5 -2t7.5 5q30 29 71 92.5t56 96.5q7 18 31 16q19 -1 18 -15
q0 -1 -1 -3l-33 -119v-8q1 1 3 5q43 83 49 93q10 16 22 22t20.5 3t11.5 -11q8 -23 0 -68q-1 -5 1 -6t7 7q1 1 17.5 33t26.5 47q17 27 43.5 13.5t17.5 -50.5q0 -2 -3 -12q-46 -189 -18 -165z" />
    <glyph glyph-name="n_n" unicode="nn" horiz-adv-x="534" 
d="M435 111q44 41 99 135q4 6 10 3t2 -10q-57 -95 -103 -140q-21 -20 -43 -7.5t-22 44.5q0 55 27 145q3 10 2.5 10.5t-3.5 -2.5q-12 -14 -52 -79t-56 -84q-17 -20 -36.5 -12.5t-18.5 37.5q2 25 9 54q-27 -52 -63 -91q-11 -13 -23.5 -21.5t-28 -8.5t-22.5 19q-4 9 -4 23.5
t2.5 31.5t5 30t6.5 29t5 19q6 30 1 32q-3 2 -15 -12q-17 -19 -41 -54t-35 -48q-14 -19 -33.5 -16t-19.5 31q0 39 25 110q7 19 30 18q19 -1 19 -15q0 -2 -1 -5l-18 -63q-13 -45 -11 -45q3 0 21 26q43 61 64 82q23 26 45.5 14.5t16.5 -51.5q-3 -21 -12.5 -57t-12.5 -50
q-4 -22 0 -26.5t25 16.5q24 27 54 73t35 63l5 15q7 18 31 16q19 -2 18 -14l-1 -4q-16 -54 -30 -123q-3 -13 13 10q17 24 73 115q25 40 46 40q15 0 24 -14.5t5 -39.5q0 -3 -5 -22q-33 -132 -17 -132q3 1 8 5z" />
    <glyph glyph-name="o_o" unicode="oo" horiz-adv-x="444" 
d="M291 276q10 21 28.5 24t30.5 -17q11 -25 7.5 -58.5t-15.5 -58.5q17 -4 37 9t30.5 25.5t28.5 37.5q4 5 6 8q2 4 6.5 3.5t6 -3.5t-0.5 -7q-21 -29 -33 -44t-37.5 -30.5t-50.5 -10.5q-28 -33 -65 -33q-32 0 -50 23t-17 54q0 25 13 46q-49 -20 -82 -17q-1 -27 -13.5 -51.5
t-32.5 -36.5q-28 -17 -62 -3q-42 19 -40 66q1 48 40 68q20 11 38 -3q12 -9 -1 -16q-25 -14 -31.5 -43.5t9.5 -47.5q21 -24 47 -2q30 24 32 71q-35 7 -43 26q-7 17 6.5 29.5t29.5 2.5q18 -11 21 -46q21 -3 52.5 6t50.5 22q21 16 54 7zM321 160q-22 10 -31 38.5t-5 54.5
q-16 -4 -26.5 -20.5t-12.5 -36.5q-2 -26 10.5 -43.5t33.5 -12.5q20 4 31 20zM328 170q12 20 16 52.5t-6 53.5q-9 13 -18 10.5t-15 -15.5q-10 -17 -4 -55t27 -46zM120 243q-3 24 -14 32q-7 5 -13.5 -1t-2.5 -13q6 -12 30 -18z" />
    <glyph glyph-name="p_p" unicode="pp" horiz-adv-x="488" 
d="M-74 -127q-4 51 11 126.5t41 167.5t32 122q2 12 15 16.5t24 -1t9 -18.5l-6 -26q49 54 85 24q39 -34 3 -108q64 15 96 44q22 88 23 93q2 12 15 16.5t24 -1t9 -18.5l-12 -52q11 14 24.5 23t30.5 12.5t31 -9.5q39 -34 3 -108q37 9 59 24t45 46q2 3 6 2.5t5.5 -3.5t-0.5 -7
q-26 -37 -52 -53t-72 -26q-19 -28 -43 -37q-33 -13 -46 1q-12 14 21 30q14 7 34 13q18 46 15 83q-4 56 -52 -2l-15 -20q-2 -7 -10 -40.5t-13 -52.5q20 -64 17 -160t-28 -159q-11 -26 -21 -38q-11 -12 -27 -9q-19 4 -29.5 25t-12.5 46q-6 82 65 357q-30 -21 -99 -37
q-19 -28 -43 -37q-33 -13 -46 1q-12 14 21 30q14 7 34 13q18 46 15 83q-4 56 -52 -2l-15 -20q-19 -76 -25 -98q21 -64 20 -140.5t-24 -139.5q-11 -26 -21 -38q-11 -12 -27 -9q-19 5 -29.5 25.5t-12.5 45.5zM257 104q-61 -217 -52 -287q4 -34 12 -34q3 0 7 4q9 9 17 33
q18 50 24.5 129t-8.5 155zM13 104q-54 -194 -47 -253q4 -34 13 -34q3 0 6 4q9 9 17 33q18 48 22.5 112t-11.5 138zM87 148q-17 -6 -24 -10q-10 -7 -3 -8q2 0 5 1q13 4 22 17zM331 148q-17 -6 -24 -10q-10 -7 -3 -8q2 0 5 1q13 4 22 17z" />
    <glyph glyph-name="q_q" unicode="qq" horiz-adv-x="506" 
d="M236 215q-60 -79 -108 -169.5t-66 -138.5q-7 -20 -27 -20q-15 2 -13 17q11 54 28 119.5t39 139.5t24 82q-17 -28 -31 -44q-30 -34 -57 -34q-14 0 -25 10.5t-11 26.5q0 51 43.5 78t91.5 17l5 14q6 18 31 15q18 -3 18 -16q-1 -1 -1 -3q-62 -229 -85 -300q90 167 152 237
q64 71 122 54q1 1 11.5 19t13.5 22q7 13 24.5 10t12.5 -24q-12 -49 -54 -191q72 36 132 110q5 5 10 1t1 -10q-65 -79 -145 -118q20 -79 15.5 -149t-23.5 -121q-9 -25 -20 -38q-12 -14 -32 -6q-28 11 -35 54t5 106.5t26 118t33.5 115.5t22.5 73q-4 -6 -16 -27t-19.5 -33
t-20 -26t-23.5 -20q-22 -11 -38.5 6t-10.5 43zM363 97q-54 -187 -48 -246q4 -34 12 -34q3 0 7 4q8 10 17 32q17 47 21.5 109t-9.5 135zM117 284q-29 -3 -51.5 -26t-27.5 -51q-5 -25 9 -19q11 4 25 22q28 36 45 74zM355 284q-25 -4 -47.5 -26t-28.5 -48q-2 -11 0 -17
t7.5 -5.5t10.5 6.5q9 10 19.5 26t22 36t16.5 28z" />
    <glyph glyph-name="r_r" unicode="rr" horiz-adv-x="383" 
d="M261 368q0 -48 -46 -121q3 -1 24 -6.5t26.5 -13t1.5 -22.5q-2 -8 -9.5 -32.5t-13 -45.5t-7.5 -33q-2 -13 2.5 -17t11.5 -0.5t16 11.5q43 38 116 158q3 4 7 4t6 -3.5t0 -7.5q-80 -127 -119 -162q-25 -23 -50 -22q-28 1 -32 40q-1 17 3.5 38.5t14 50.5t9.5 30q3 9 -3 11
q-2 1 -7 2.5t-7 2.5q-72 -124 -117 -170q-19 -19 -29 -24q-21 -11 -37.5 1t-19.5 36q-6 46 25 117q10 22 -3 28q-29 14 -39 28q-26 34 1 64q11 13 29 11.5t22 -19.5q4 -26 -21 -55q6 -3 25 -10.5t27 -13.5q15 -11 6 -38q-48 -138 -26 -137q10 0 30 22q47 51 114 166
q-32 19 -39 40q-11 32 9.5 73t54.5 50q20 5 32 -3.5t12 -27.5zM202 253q43 68 45 115q1 13 -6 17.5t-17 -2.5q-25 -17 -37 -63.5t15 -66.5zM6 257q19 23 17 43q-2 13 -13 4q-8 -6 -9 -22t5 -25z" />
    <glyph glyph-name="s_s" unicode="ss" horiz-adv-x="429" 
d="M-41 50q10 35 74 72q-4 15 -12.5 40t-13 40.5t-8 41t2.5 42.5q11 46 56 63q38 15 70 -3t24 -60q-1 -4 -5 -5t-7 1.5t-2 6.5q4 21 -8 34t-30 12q-39 -1 -50 -53q-1 -20 -2.5 -28.5t3 -28t7 -27.5t9.5 -27t9 -27q88 39 136 146q7 39 33 61q24 20 53 21.5t47 -18t12 -52.5
q-1 -5 -5 -6.5t-7 1.5t-2 7q7 34 -20 44.5t-47 -18.5q-12 -17 -16 -42q-4 -4 -2 -28t2.5 -33.5t5 -36t6 -37t6.5 -34.5t6 -29q82 49 145 156q4 6 10 3t3 -10q-64 -109 -156 -164q12 -82 -46 -123q-18 -13 -42.5 -17.5t-41 5.5t-8.5 36q14 41 91 88q-2 22 -15.5 89.5
t-14.5 100.5q-51 -90 -129 -124q10 -43 -2 -78t-51 -48q-29 -9 -53 3.5t-15 42.5zM240 48q-67 -42 -78 -77q-6 -21 13 -22t33 11q35 27 32 88zM24 30q21 25 12 78q-57 -34 -64 -62q-7 -24 15 -29t37 13z" />
    <glyph glyph-name="u_u" unicode="uu" horiz-adv-x="551" 
d="M381 45q-8 12 -9.5 31t3.5 46t9 44t13 46.5t9 30.5q-60 -110 -108 -145q-15 -14 -36 -12.5t-26 24.5q-6 27 9 85q-48 -86 -73 -104q-16 -12 -34 -8.5t-26 23.5q-13 33 15 130q-40 -53 -75 -80q-23 -18 -42 -11.5t-20 34.5q-2 52 22 108q7 18 31 16q17 0 17 -14l-1 -5
q0 -1 -3 -8q-45 -137 0 -98q3 2 5 4q26 24 49.5 55t28.5 44q7 21 31 20q19 -1 18 -17q0 -2 -1 -5q-37 -122 -37 -165q0 -63 113 143q2 4 3 5q5 18 30 16q21 -1 20 -15q0 -1 -1 -3q-31 -113 -33 -129q-5 -37 26 -6q12 10 24.5 26t25.5 37.5t21.5 36t22 38.5t16.5 30
q11 20 34 15q20 -3 15 -19q-54 -180 -56 -224q-1 -15 2.5 -17.5t16.5 10.5q32 35 121 188q3 4 7 4.5t6 -3t0 -7.5q-10 -19 -31.5 -56t-57 -88.5t-53.5 -62.5q-24 -14 -41 12z" />
    <glyph glyph-name="v_v" unicode="vv" horiz-adv-x="568" 
d="M447 172q-13 -22 -29.5 -41.5t-38 -35.5t-44 -11t-39.5 36q-21 35 -14 112q-27 -46 -61 -67t-64 -11q-36 -69 -74 -105q-23 -24 -51 -22t-39 35q-24 65 11 204q6 21 29 20q20 0 22 -16q0 -3 -1 -7q-31 -121 -23 -189q6 -51 43 -15q37 35 71 102q-16 15 -21 43.5t5 52.5
q10 25 28.5 35t30 -3t4.5 -45t-28 -76q31 -9 66 21.5t59 89.5q5 21 27 21q20 0 21 -16q1 -3 0 -7q-15 -93 -5 -143q16 -69 80 11l24 35q-36 37 -30.5 93.5t48.5 70.5q15 7 30 2t17 -22q5 -42 -44 -134q10 -11 23.5 -11.5t25.5 6t25 19t21.5 22.5t15.5 20q3 3 7 2.5t5.5 -3.5
t-0.5 -7q-74 -97 -133 -66zM448 204q43 84 39 118q-3 21 -24 0q-21 -19 -25 -56.5t10 -61.5zM152 175q20 42 26 69q4 24 0.5 32t-12.5 0.5t-15 -25.5q-7 -19 -7.5 -41t8.5 -35z" />
    <glyph glyph-name="w_w" unicode="ww" horiz-adv-x="800" 
d="M800 246q5 5 10.5 1.5t1.5 -10.5q-62 -86 -135 -47q-35 -77 -74 -99q-40 -22 -65 -4.5t-35.5 52t-6.5 72.5q-11 -20 -33.5 -49t-37.5 -38q-32 -18 -44 14q-9 21 3 73q-27 -38 -60.5 -55.5t-57.5 -0.5q-49 -95 -81 -117q-27 -17 -49.5 -6t-31.5 42q-12 38 1 123
q-26 -48 -63 -84q-24 -22 -43.5 -11.5t-19.5 41.5q0 51 26 119q6 17 30 16q20 -1 19 -14q0 -2 -1 -4q-23 -81 -31 -122q-3 -13 -1 -16t5.5 -1.5t9.5 7.5q24 24 72 105q11 19 30.5 13t15.5 -30q-18 -113 -4 -158q5 -20 22 -10q37 20 83 118q-22 36 -20.5 65.5t18.5 51.5
q17 23 36.5 18.5t15.5 -36.5q-3 -30 -33 -97q28 -22 68.5 13.5t60.5 88.5q7 20 30 19q18 -2 18 -17q0 -3 -1 -7q-23 -72 -26 -112q-2 -36 78 91q8 14 25 11.5t17 -19.5q-1 -16 0.5 -36.5t5.5 -48.5t17 -42t33 -4q32 16 67 93q-30 21 -40 59q-8 30 2.5 62t37.5 44
q38 18 48 -14q13 -41 -29 -142q20 -20 43 -14.5t41 19.5t32 34zM674 219q35 93 26 126q-7 18 -24 1q-23 -25 -22 -63t20 -64zM263 181q25 57 27 84q1 15 -5 15.5t-14 -12.5q-10 -18 -13.5 -42.5t5.5 -44.5z" />
    <glyph glyph-name="x_x" unicode="xx" horiz-adv-x="474" 
d="M474 246q3 4 7 3t5.5 -4t-0.5 -7q-83 -113 -127 -138q-67 -39 -102 55q-48 -41 -53 -71q-1 -4 -5 -5.5t-7 1t-2 6.5q6 35 62 84q-11 35 -15 65q-42 -94 -69.5 -141.5t-52.5 -58.5q-16 -8 -34.5 -4t-31.5 19q-18 20 -31 71q-49 -55 -52 -86q0 -4 -4 -5.5t-7 0.5t-3 6
q3 38 63 102q-16 75 -16 116q0 17 23.5 18.5t24.5 -17.5l7 -75q79 79 84 109q1 4 5 5t7 -1.5t2 -6.5q-7 -35 -96 -124q11 -83 26 -105q12 -18 30 -7q40 21 123 214q7 18 26.5 19t20.5 -16q2 -26 10 -66q75 57 85 85q1 4 5 4.5t6.5 -2.5t1.5 -7q-3 -8 -10 -17.5t-13.5 -16.5
t-18.5 -18t-17.5 -15.5t-19.5 -15.5t-16 -12q2 -9 3.5 -13t4.5 -13.5t5.5 -14.5l6.5 -13t8 -11.5t9.5 -6t11.5 -1.5t13 5q39 24 117 128z" />
    <glyph glyph-name="y_y" unicode="yy" horiz-adv-x="520" 
d="M384 299q5 23 28 21q20 -2 21 -18v-5q-18 -95 -32 -148q81 48 119 97q3 4 7 3.5t5.5 -4t-0.5 -7.5q-39 -49 -136 -109q-14 -52 -24.5 -85.5t-33.5 -93t-52.5 -97t-62.5 -48.5q-26 -9 -46.5 0.5t-27.5 35.5q-17 65 39 146q25 36 62.5 65t93.5 63q6 22 30 131
q-46 -73 -73 -90q-19 -13 -35 -7.5t-18 28.5q-2 18 6 53q-32 -56 -120 -124q-15 -52 -21.5 -74t-25 -74t-39 -85.5t-43.5 -51.5q-9 -8 -22.5 -14t-28 -5.5t-17.5 14.5q-3 17 4 46q12 46 46.5 103.5t88.5 109.5q25 82 42 154q-13 -24 -49 -63q-19 -19 -36 -26.5t-30 2.5
t-13 42q0 33 15 78q5 18 29 16q20 -1 19 -14q0 -2 -1 -4q-1 -3 -9.5 -33.5t-11.5 -45.5q-5 -25 5 -23q8 2 25 20q39 41 68 106q5 12 18 15.5t23 -2.5t8 -17q-12 -58 -38 -151q43 32 80.5 76t49.5 86q5 18 27 19q20 2 21 -14l-1 -8q-20 -81 -22 -92q-3 -30 15 -14
q28 25 65 96q8 15 9 21zM209 -176q61 36 129 271q-102 -62 -139 -116q-51 -76 -36 -133q11 -42 46 -22zM67 46q-85 -92 -112 -188q-5 -16 -5 -31q0 -4 1 -6t3.5 -2t4.5 1t5 3.5t4 3.5l3 3q49 54 96 216z" />
    <glyph glyph-name="z_z" unicode="zz" horiz-adv-x="506" 
d="M117 256q20 -6 27.5 -21.5t1.5 -34.5q-6 -18 -25 -33t-31 -22t-5 -10q28 -11 42 -36q66 47 106 112q13 22 18.5 30.5t17.5 23t26 21t33 9.5q30 4 53.5 -12t19.5 -44q-1 -6 -2.5 -12t-5 -11t-5.5 -9t-7.5 -9t-8 -7.5t-9.5 -7t-9 -6t-10.5 -6.5t-9.5 -6q-10 -6 2 -11
q35 -15 47 -37q83 53 123 129q4 6 10 3t3 -10q-50 -86 -129 -134q25 -67 -30.5 -145.5t-123.5 -99.5q-27 -11 -54 -0.5t-27 40.5q0 53 63 110q14 13 32 26t30 20.5t35 21t32 18.5q-7 28 -37 39q-11 4 -15 10t-1 13t12 13q59 41 61 78q0 14 -9.5 22t-23.5 8t-26 -4.5
t-21.5 -14.5t-15 -17t-15.5 -22.5t-13 -20.5q-43 -68 -111 -114q19 -61 -49.5 -146.5t-142.5 -90.5q-26 -2 -37 9t0 38q31 70 186 178q2 26 -25 39q-24 12 -25.5 18.5t20.5 28.5q35 30 41 55q6 27 -14 29q-13 2 -40.5 -2.5t-39.5 -4.5q-5 0 -6.5 3.5t0.5 7t6 3.5q11 0 54 7
t57 -2zM349 81q-96 -57 -122 -81q-57 -53 -57 -99q0 -12 6 -19t17 -6q36 4 73.5 41t60.5 83.5t22 80.5zM-55 -132q45 15 90.5 76.5t53.5 111.5q-143 -101 -171 -164q-9 -21 1 -26t26 2z" />
    <glyph glyph-name="t_t" unicode="tt" horiz-adv-x="354" 
d="M-12 141q-1 112 81 341q-88 -3 -144 4q-93 13 -86 64q0 4 4 5.5t7 -1t3 -6.5q-3 -19 16 -30.5t58 -17.5q56 -7 147 -4l4 12q7 21 31 17q19 -3 18 -16q0 -1 -1 -3l-3 -8l126 5l9 31q5 17 29 14q20 -2 19 -16l-1 -3l-7 -24q229 8 341 -19q4 -1 5 -5t-2 -7t-7 -2
q-110 27 -341 19q-7 -24 -32.5 -108.5t-38.5 -130t-27 -109t-16 -103.5q-1 -13 1 -14.5t11 5.5q38 29 92 106.5t70 108.5q2 4 6 4.5t6.5 -2.5t0.5 -7q-20 -36 -73 -112.5t-94 -108.5q-28 -22 -44.5 -5.5t-14.5 59.5q1 52 19 127q-49 -60 -82 -89q-37 -35 -61 -28
q-29 7 -29 57zM244 489l-126 -6q-80 -255 -91 -362q-2 -24 10 -22q8 2 32 23q42 37 98 111q25 100 77 256z" />
    <glyph glyph-name="f_j" unicode="fj" horiz-adv-x="323" 
d="M17 -126q3 43 36 96t78 94q4 15 37 149q-41 -42 -127 -44q26 -40 27 -96t-14 -89q-10 -31 -25 -44q-19 -18 -43 4q-25 22 -23 86q1 71 36 213q16 66 35 128t56.5 140t75.5 104q23 18 44 14t25 -34q2 -19 -1 -40q-9 -64 -51.5 -138.5t-117.5 -128.5q-20 -70 -29 -105
q51 1 83 12.5t57 47.5l9 32q6 20 30 19q19 -1 19 -17l-1 -5q-11 -52 -38 -154q77 64 128 128q2 3 6 2.5t5.5 -4t-0.5 -7.5q-13 -16 -26.5 -31t-22 -24.5t-25.5 -24.5t-21.5 -19t-25.5 -22t-24 -20q-47 -166 -96 -223q-39 -46 -62 -39q-16 6 -14 40zM71 310q66 52 103.5 120
t45.5 126q3 20 1 36q-4 35 -27 15q-9 -8 -17.5 -20.5t-17.5 -29.5t-16 -32.5t-15.5 -38.5t-14 -38.5t-13.5 -40.5t-11.5 -36t-10 -34t-7.5 -27zM30 160q-11 -50 -19 -105q-11 -80 -1 -102q3 -9 10 -2q12 10 21 38q14 30 13.5 82t-24.5 89zM60 -115q31 50 62 150
q-34 -34 -59.5 -77t-30.5 -77t5 -27q7 4 23 31zM224 363q11 0 19 -8t8 -19t-8.5 -19t-19.5 -8q-10 0 -17.5 8t-7.5 19t7.5 19t18.5 8z" />
    <glyph glyph-name="e_e" unicode="ee" horiz-adv-x="354" 
d="M220 231q-13 -22 -16 -50t12 -40q13 -6 34 6q52 27 104 99q2 4 6.5 3.5t6 -3.5t-0.5 -7q-47 -74 -116 -111q-34 -18 -61 -11q-22 6 -30 30.5t-3 49.5q-18 -17 -34 -31q-25 -20 -47 -27q-57 -19 -81 19.5t7 89.5q14 25 39.5 40t55.5 12q13 -2 18.5 -10.5t-2.5 -21.5
q-13 -19 -66 -32q-33 -50 -12 -76.5t79 17.5q33 26 58 61q24 43 66 53q47 11 53 -14q5 -22 -19 -39q-22 -17 -51 -7zM229 246q21 -11 39 12q13 16 4 19q-3 2 -8 0q-16 -5 -35 -31zM57 254q38 11 45 22q3 4 1 7t-7 2q-19 -1 -39 -31z" />
    <glyph glyph-name="g_g" unicode="gg" horiz-adv-x="482" 
d="M-125 -156q-17 65 40 143q42 58 155 122l24 94q-8 -14 -16 -25q-34 -45 -66 -45q-24 0 -31 28q-6 25 3.5 53t27.5 48q41 48 101 26l1 3q4 13 16 16.5t22 -3t8 -18.5q-10 -61 -33 -142q65 41 97 96q13 44 50 61t81 9l3 10q3 11 16 15t24 -1t9 -16q-12 -72 -37 -164
q5 3 18.5 12l18 12t15.5 11t16.5 12.5t14 12t15.5 15.5t14 17q5 7 11 2q4 -4 0 -9q-11 -14 -22 -26t-25.5 -23.5t-23.5 -18t-29 -19t-28 -18.5q-2 -6 -10.5 -38t-12.5 -43.5t-13 -42t-15.5 -45.5t-16.5 -41t-19.5 -41.5t-21.5 -33.5t-25 -29.5t-27 -19.5q-47 -23 -59 6
q-6 15 -1 47q9 53 53 127.5t113 130.5q22 78 37 146q-13 -22 -23 -35.5t-28 -27t-37 -15.5q-34 -4 -38 30q-34 -45 -99 -85q-39 -140 -64 -196q-52 -112 -121 -123q-49 -7 -62 39zM-77 -181q33 7 67 72q36 68 74 199q-99 -59 -138 -111q-53 -73 -38 -132q10 -33 35 -28z
M303 86q-59 -51 -97.5 -119t-47.5 -116q-5 -28 0 -40q3 -8 12 -4q21 9 56 74q37 71 77 205zM33 161q10 -3 34 25q22 25 42 88q-33 5 -58 -28t-25 -67q0 -17 7 -18zM293 212q38 35 57 84q-31 1 -55.5 -21t-30.5 -53q-3 -15 1 -19.5t11.5 -1.5t16.5 11z" />
    <glyph glyph-name="l_l" unicode="ll" horiz-adv-x="369" 
d="M229 555q-9 -65 -51.5 -139.5t-117.5 -127.5q-2 -9 -10.5 -40t-12 -45t-7 -37.5t-3.5 -42.5q0 -15 5.5 -20.5t14.5 -1t16 10t16 13.5q53 49 101 117q7 29 14 55q78 303 169 346q35 17 40 -14q3 -18 -3 -52q-13 -71 -55 -156.5t-103 -139.5q-47 -171 -47 -232
q0 -13 3 -14.5t13 5.5q16 13 33 35q103 132 125 171q2 4 6.5 4.5t6 -3t-0.5 -7.5q-5 -9 -47 -68t-79 -106q-63 -82 -88 -34q-21 40 6 178q-47 -63 -84 -96q-27 -23 -38 -27q-21 -7 -36.5 1.5t-20.5 29.5q-16 59 20 189q16 58 34.5 113.5t56.5 123t76 81.5q36 13 46 -16
q7 -19 2 -54zM66 310q66 52 103.5 120t45.5 126q4 30 -1 49q-7 18 -26 1q-10 -10 -27 -39q-41 -72 -95 -257zM249 307q52 54 88.5 131.5t48.5 140.5q4 28 4 36q0 12 -2 16t-5.5 1.5t-10.5 -11.5q-27 -33 -54 -99.5t-37.5 -103.5z" />
    <glyph glyph-name=".notdef" horiz-adv-x="1604" 
d="M353 292q8 20 29.5 15.5t16.5 -27.5q-26 -84 -27 -103q-3 -59 67 16q20 22 37 44q-20 13 -30 37q-13 31 6.5 73t53.5 52q38 10 40 -31q0 -48 -46 -121q3 -1 24 -6.5t26.5 -13t1.5 -22.5q-23 -85 -23 -86q-6 -31 30 -6q50 37 108 132l16 62q77 287 164 318q36 13 46 -16
q7 -19 2 -54q-8 -64 -50.5 -138.5t-118.5 -128.5q-15 -58 -22 -94q-11 -50 -11 -71q0 -15 5.5 -20.5t15 -1t16 10t15.5 13.5q29 26 61 65.5t43 55.5q32 61 111 46q8 20 29.5 15.5t16.5 -27.5q-26 -84 -27 -103q-3 -62 75 24q23 27 36 45v1q4 9 11 32q6 19 30 18
q19 -1 19 -15q0 -2 -1 -5l-18 -63q-13 -45 -11 -45q3 0 21 26q43 61 64 82q23 26 45.5 14.5t16.5 -51.5q-3 -21 -12.5 -57t-12.5 -50q-4 -22 0 -26.5t25 16.5q17 19 39 49t35.5 49.5t16.5 24.5q17 29 45 43t62 5q24 99 64.5 201t89.5 127q38 20 48.5 -3t3.5 -63
q-10 -66 -51.5 -142.5t-107.5 -125.5q-27 -88 -19 -126q5 -26 35 0q38 31 76 84q3 4 7 3.5t5.5 -3.5t-0.5 -7q-40 -57 -75 -85q-47 -37 -73 -9q-19 19 -17 63q-24 -40 -44 -53q-31 -18 -48.5 -4t-15.5 47q-39 -56 -65 -84q-40 -42 -65 -25q-6 4 -9 12.5t-3 20.5t0.5 24
t3.5 27.5t5 24.5t5.5 22.5t3.5 15.5q6 30 1 32q-3 2 -15 -12q-18 -21 -43.5 -57t-32.5 -45q-19 -23 -36 -18.5t-17 33.5q0 21 6 43q-54 -65 -85 -77q-44 -18 -56.5 11t-1.5 73q-14 -30 -29 -46q-16 -17 -34 -18t-31 19q-8 13 -6 35q-53 -68 -84 -95q-23 -20 -37 -25
q-32 -13 -49 9q-21 27 -9 110q-51 -76 -93 -106q-26 -20 -48 -19q-28 1 -32 37q-1 17 1.5 32.5t10 37t8.5 24.5q3 9 -3 11l-15 6q-20 -28 -49 -57.5t-50 -38.5q-44 -18 -56.5 11t-1.5 73q-14 -30 -29 -46q-16 -17 -34 -18t-31 19q-9 17 -6 40q-27 -26 -85 -39
q-17 -34 -51 -47q-29 -11 -46 0q-13 12 1 26q15 15 60 27q18 49 6 81q-7 22 -27 -2q-20 -22 -55 -92l-13 -26q-8 -14 -20.5 -18t-21 2.5t-6.5 19.5q11 47 60 218q14 45 24 74t31.5 79.5t47.5 79.5t54 32t37 -20q6 -19 2 -54q-9 -64 -52 -138.5t-118 -128.5l-24 -88
q26 50 44 69q41 47 67 19q23 -26 11 -79q-2 -9 -5 -18q32 8 51.5 19.5t37.5 35.5q36 60 111 46zM67 310q66 52 103.5 120t45.5 126q4 31 -2 49q-5 16 -20 5q-14 -11 -33 -43q-40 -68 -94 -257zM732 310q66 52 103.5 120t45.5 126q4 30 -1 49q-7 18 -26 1q-14 -14 -27 -39
q-18 -30 -45 -102q-19 -54 -50 -155zM1518 311q58 47 93.5 117t45.5 130q6 38 1.5 50t-17 1t-30.5 -42q-38 -65 -93 -256zM487 253q45 72 45 115q-2 27 -19 15q-22 -17 -35 -64.5t9 -65.5zM1454 243l7 36q-39 6 -59 -37q-12 -23 -12 -46q0 -20 7 -23q6 -2 14 4.5t17 20.5
t14.5 23.5t11.5 21.5zM348 277q-27 0 -48.5 -21t-26.5 -48q-2 -12 2 -22.5t15 -3.5q25 15 58 95zM955 277q-27 0 -48.5 -21t-26.5 -48q-2 -12 2 -22.5t15 -3.5q25 15 58 95zM104 164q-26 -8 -39 -17q-7 -6 -4 -9t11 -1q19 4 32 27z" />
    <glyph glyph-name=".null" horiz-adv-x="0" 
 />
    <glyph glyph-name="nonmarkingreturn" horiz-adv-x="333" 
 />
    <glyph glyph-name="NULL" horiz-adv-x="0" 
 />
    <glyph glyph-name="NULL" horiz-adv-x="0" 
 />
    <glyph glyph-name="CR" unicode="&#xd;" horiz-adv-x="200" 
 />
    <glyph glyph-name="space" unicode=" " horiz-adv-x="200" 
 />
    <glyph glyph-name="A" unicode="A" horiz-adv-x="586" 
d="M477 256q3 3 6.5 1t4 -5.5t-2.5 -6.5q-24 -18 -55 -26q6 -65 20 -118q4 -16 9.5 -30t15 -31t23.5 -25t30 -4q5 1 7.5 -1.5t1.5 -6.5t-6 -5q-54 -15 -85.5 20t-46.5 94q-11 45 -16 103q-18 1 -103 13l-54 -75q-110 -149 -179 -165q-31 -8 -46.5 11t-14.5 51q2 38 25 81
t64 74q44 33 99 40t100 -2q53 73 105 153q4 69 25 139.5t61 98.5q14 12 27.5 9t12.5 -25q-3 -53 -74 -167q-11 -108 -2 -218q27 6 48 23zM264 230q-116 13 -181 -35q-38 -28 -60 -69t-23 -76q-1 -25 10 -40t35 -9q64 16 169 160q34 46 50 69zM382 229q-6 66 -4 141
q-14 -21 -29.5 -44t-33.5 -48.5t-26 -37.5q79 -11 93 -11zM435 483q53 91 56 131q1 16 -3 15t-12 -13q-29 -42 -41 -133z" />
    <glyph glyph-name="B" unicode="B" horiz-adv-x="576" 
d="M259 505q-57 -102 -141 -351q-5 -16 -15 -46.5t-18.5 -55.5t-16.5 -45q-7 -20 -29 -17q-20 1 -19 17q0 2 1 5q10 34 36.5 125t40 138.5t29.5 122t24 137.5q8 23 0.5 70t-42.5 21q-25 -19 -46 -59q-13 -26 -18 -52.5t0 -53.5t24 -45q5 -5 0 -10t-10 0q-31 37 -30.5 79.5
t22.5 87.5q22 44 50 64q26 19 50.5 12t35.5 -37q32 -81 -14 -261q35 97 70 160q52 95 108 114q51 18 84.5 -14t17.5 -102q-10 -43 -43 -86t-83 -69q57 -3 97 -30t56 -66t13.5 -85t-22.5 -87t-59.5 -72t-90.5 -39q-53 -9 -97.5 10.5t-64.5 67.5q-19 46 -1 98q1 4 5 4.5
t6.5 -2t1.5 -6.5q-17 -47 2 -89q17 -37 50.5 -54t72.5 -12q89 11 131.5 106t-1.5 176t-162 57q-6 -1 -9.5 1.5t-1.5 7t9 6.5q69 24 112 91q20 31 32 73t2 72q-12 40 -55 25q-20 -7 -39.5 -26t-30 -35t-24.5 -41z" />
    <glyph glyph-name="C" unicode="C" horiz-adv-x="512" 
d="M433 407q-2 -4 -6 -4t-6 3.5t0 7.5q48 97 9 156q-25 38 -75 42.5t-87 -16.5q-65 -32 -118 -115.5t-74.5 -181.5t-3.5 -173q13 -54 48 -81.5t76.5 -25t85.5 20.5q112 52 230 206q3 3 7 2.5t5.5 -3.5t-0.5 -7q-110 -142 -212 -199q-63 -35 -121.5 -40.5t-105.5 22.5
q-55 35 -74.5 102.5t-9.5 137.5q15 116 88 220.5t164 133.5q34 11 67.5 13.5t67.5 -9.5t53 -41q44 -66 -8 -171z" />
    <glyph glyph-name="D" unicode="D" horiz-adv-x="607" 
d="M21 12q11 41 48 159t58 201.5t31 162.5q8 23 0.5 70t-42.5 21q-25 -19 -46 -59q-13 -26 -18 -52.5t0 -53.5t24 -45q5 -5 0 -10t-10 0q-31 37 -30.5 79.5t22.5 87.5q22 44 50 64q26 19 50 12t36 -37q30 -74 -13 -232q45 129 100 195q34 41 71 56.5t68 5.5t56 -37t39 -67
q28 -80 18 -186.5t-53 -196.5q-34 -70 -87 -117t-118 -50q-83 -4 -117 63q-24 49 -1 113q1 4 5 4.5t6.5 -2t1.5 -6.5q-21 -60 0 -103q15 -31 46.5 -43.5t64.5 -5.5t56 28q78 70 114.5 217.5t16.5 257.5q-18 100 -72.5 112t-116.5 -74q-39 -54 -78 -153t-74.5 -211.5
t-40.5 -124.5q-13 -35 -16 -42q-9 -24 -33 -21q-17 2 -17 15q0 3 1 5z" />
    <glyph glyph-name="E" unicode="E" horiz-adv-x="442" 
d="M380 490q-3 -7 -9.5 -4.5t-4.5 9.5q17 41 3 77q-17 42 -58 52.5t-81.5 -8.5t-57.5 -55q-13 -32 -14 -65.5t19.5 -67.5t60.5 -54q5 -2 6 -5.5t-1.5 -6t-7.5 -2.5q-45 0 -83.5 -18.5t-62 -48t-39 -65.5t-15.5 -71.5t9 -67.5q30 -87 126 -78q20 2 39 8t34 12t33 19t29 21
t27.5 27t24 26.5t24 31t21 29.5t21 31.5t19.5 29.5q2 3 6.5 2.5t6 -3.5t-0.5 -7q-77 -115 -115 -155q-76 -80 -166 -92q-54 -7 -99.5 12.5t-70.5 68.5q-24 41 -20 93t24 98t66.5 79.5t106.5 37.5q-76 62 -69.5 139t75.5 112q38 16 78.5 17t76 -21t45.5 -60q9 -36 -6 -77z
" />
    <glyph glyph-name="F" unicode="F" horiz-adv-x="436" 
d="M67 528q-2 -4 -6 -4t-6.5 3.5t-0.5 6.5q13 24 36.5 39.5t44.5 22t54 8t49.5 0.5t47.5 -5l32 -4q48 61 121 69q62 6 88 -24q22 -25 -8 -45q-14 -10 -39 -15q-48 -9 -125 -2q-10 -16 -18.5 -34.5t-17.5 -48.5t-13.5 -44.5t-15.5 -58t-14 -53.5h31.5t39.5 2q7 33 13 46
q14 26 29 12q15 -16 7 -40t-37 -30q-7 -34 -23 -48q-5 -4 -10 1t0 10q13 12 18 34q-13 -1 -35 -1h-36q-1 -3 -9 -33.5t-10.5 -39.5t-10.5 -38.5t-13 -43.5t-14 -40t-16.5 -41.5t-17.5 -35t-20.5 -34t-21.5 -25.5q-21 -21 -45 -31.5t-46.5 -2.5t-32.5 39q-20 67 21 164
q28 64 74 110.5t104 59.5q49 185 93 249q-197 33 -241 -54zM364 591q71 -5 113 3q44 9 43 28q-1 17 -33 25q-18 5 -36 2q-51 -9 -87 -58zM211 318q-52 -13 -93 -56.5t-68 -103.5q-40 -91 -20 -156q7 -23 22 -29t34 11q10 10 20.5 27.5t19 36t18.5 46.5t17 47.5t16 51.5
t13 47t12 44.5t9 33.5zM362 344q22 8 23 32q0 12 -6 11q-3 0 -7 -7q-7 -15 -10 -36z" />
    <glyph glyph-name="G" unicode="G" horiz-adv-x="567" 
d="M469 408q-2 -4 -6 -4.5t-6 3t-1 7.5q44 95 12 158q-18 35 -53.5 48t-72.5 6t-69 -28q-99 -66 -175 -257q-44 -111 -40 -209q3 -97 59 -93q48 3 129 87q51 52 123 150q9 13 21.5 16t21 -2t7.5 -13q-5 -70 -34 -188q85 54 182 157q3 3 7 2t5 -4t-1 -7
q-62 -66 -104.5 -101.5t-93.5 -66.5q-21 -79 -60.5 -156t-89.5 -105q-36 -23 -66 -8t-19 60q11 41 54.5 91.5t123.5 99.5q21 69 41 194q-58 -78 -108 -129q-17 -17 -25.5 -25t-28 -25.5t-34.5 -25.5t-35 -16.5t-40 -7.5t-39 10q-37 18 -51.5 65.5t-10.5 96.5q6 88 46.5 185
t105.5 168q50 54 115 83t130 18q63 -10 91 -63q36 -69 -11 -171zM317 30q-136 -87 -158 -173q-7 -28 4 -39.5t37 4.5q66 45 117 208z" />
    <glyph glyph-name="H" unicode="H" horiz-adv-x="598" 
d="M149 430q3 -3 1 -7t-5.5 -4.5t-6.5 2.5q-32 45 -19 103t53 93q17 17 40.5 16.5t33.5 -25.5q32 -77 -37 -325q33 19 100 40t83 27q63 222 131 275q19 16 38 13.5t22 -29.5q4 -42 -18 -97t-53 -91q-32 -37 -61 -56q-57 -194 -57 -299v-13.5t1 -13t3 -11t5.5 -7t9 -2.5
t12.5 5q52 30 173 222q4 5 10 1.5t2 -9.5q-126 -198 -182 -230q-45 -26 -67 25q-34 83 26 300q-20 -8 -59 -19.5t-69.5 -23t-55.5 -26.5q-16 -51 -35 -102t-54 -112t-66 -76q-26 -11 -35 9q-7 15 1 48q10 44 42.5 99t82.5 102q53 160 72 312q6 22 1 53t-31 9
q-36 -31 -48 -84.5t16 -91.5zM39 0q37 46 91 203q-82 -86 -102 -176q-8 -36 1 -35q4 0 10 8zM457 387q27 21 47 47q27 35 48.5 86.5t17.5 87.5q-3 23 -18 5q-34 -39 -95 -226z" />
    <glyph glyph-name="I" unicode="I" horiz-adv-x="392" 
d="M340 614q34 -94 -22 -310t-150 -300q-33 -29 -73 -34t-71 18q-40 30 -34 87q0 8 8 6q6 -2 6 -8q-5 -43 21.5 -68.5t69.5 -15.5q28 7 52.5 34.5t43.5 73.5t28.5 74t21.5 72q3 10 4 14q48 166 59 280v1q9 108 -27 98l-16 -9q-32 -25 -49.5 -66.5t-14.5 -81.5q3 -39 28 -62
q3 -3 1.5 -7t-5 -5t-6.5 2q-29 26 -32 71q-3 44 17 90t52 70q27 20 52 13t36 -37z" />
    <glyph glyph-name="J" unicode="J" horiz-adv-x="439" 
d="M74 535q0 -5 -3.5 -7t-7 0t-3.5 7q0 102 140 102q46 0 168 -20q27 33 68 44q18 7 46 3t41 -21q16 -22 -6 -38q-28 -22 -119 -8q-25 -40 -47.5 -122t-45 -191.5t-31.5 -144.5q68 26 101 46t64 61q4 6 9.5 1.5t1.5 -9.5q-34 -45 -69.5 -66t-111.5 -49q-34 -119 -75 -190
q-30 -50 -76.5 -92t-90.5 -39q-29 2 -41 29t1 71q17 55 70.5 111t146.5 97q10 36 37 155.5t54 202t64 136.5q-110 19 -159 19q-126 0 -126 -88zM407 610q79 -12 102 6q10 9 2 19q-17 21 -49 13q-31 -7 -55 -38zM83 -151q63 67 116 244q-86 -41 -135.5 -93t-63.5 -102
q-17 -62 12 -77.5t71 28.5z" />
    <glyph glyph-name="K" unicode="K" horiz-adv-x="515" 
d="M238 316q12 -10 20 -25.5t12.5 -38.5t7 -39.5t5 -47.5t3.5 -44q9 -101 25 -121q15 -19 45 7q27 23 57 65t51 79t44 81q5 9 7 14q2 4 6 4t6 -3t0 -7q-74 -143 -116 -197q-23 -29 -46 -47q-17 -13 -35 -19t-36.5 0t-31.5 25q-21 32 -20.5 96t5.5 109t-17 81
q-70 -261 -168 -317q-25 -16 -50 -11t-30 36q-9 62 47 150q52 81 146 147q75 279 58 324q-6 16 -22 5q-20 -13 -37 -49q-20 -42 -21.5 -83t26.5 -78q7 -7 -2 -11q-5 -2 -8 1q-21 23 -27 56t-0.5 62.5t19.5 58.5q18 38 42 55q29 20 51 -4q53 -59 -11 -293q97 62 163.5 122.5
t107.5 138.5q2 4 6 4t6.5 -3t0.5 -7q-47 -86 -117 -148.5t-172 -127.5zM170 272q-82 -61 -129 -133q-53 -83 -45 -140q3 -23 16.5 -24.5t29.5 14.5q66 61 128 283z" />
    <glyph glyph-name="L" unicode="L" horiz-adv-x="386" 
d="M45 276q-4 0 -6.5 3t-1 7t5.5 4q89 12 154 43q13 49 21 77.5t26.5 83t40.5 89.5t45 49q44 26 50 -26q8 -68 -28 -140t-92 -113q-51 -209 -136 -338q15 -5 53.5 -18t57 -19t51.5 -12t53.5 -3.5t45 12.5t42.5 31q3 3 7 2.5t5.5 -3.5t-0.5 -7q-25 -33 -52.5 -50t-52 -20
t-55.5 4.5t-54 18t-57 25.5t-55 23q-51 -71 -99 -62q-27 5 -30 31q-2 11 3 22q20 49 103 33q53 105 102 293q-61 -28 -147 -40zM265 375q49 44 78.5 107.5t22.5 121.5q-4 33 -19 15q-31 -36 -82 -244zM0 -15q-8 -22 9 -33q25 -14 58 31l16 25q-69 15 -83 -23z" />
    <glyph glyph-name="M" unicode="M" horiz-adv-x="724" 
d="M141 197q3 5 37 79t64.5 135.5t51.5 90.5q26 38 51 25.5t23 -60.5q-2 -50 -22 -164q28 68 105.5 184t120.5 152q36 31 59 4q27 -31 8 -110q-7 -28 -65 -217.5t-62 -267.5q-2 -31 8.5 -35t39.5 20q61 54 164 213q4 5 10 1.5t2 -9.5q-103 -160 -167 -216q-19 -17 -37 -23
t-33.5 2.5t-23.5 34.5q-17 59 14 190.5t70 241.5q35 95 36 140q1 27 -18 11q-48 -41 -113 -142.5t-112 -195.5q-8 -17 -22.5 -19t-25 11.5t-10.5 37.5q1 43 20 171q7 45 -33 -27q-46 -84 -125 -264q-16 -36 -36 -77.5t-33 -69t-17 -37.5q-9 -24 -32 -20q-18 3 -17 18
q0 3 1 5q8 28 38 123.5t44 142t31.5 122.5t25.5 137q8 23 1 70t-43 21q-26 -20 -45 -59q-21 -41 -21.5 -80t26.5 -71q5 -5 0 -10t-10 0q-21 21 -27 51t-0.5 58.5t19.5 57.5q22 44 50 64q27 19 51 12t35 -37q10 -27 11.5 -65.5t-4.5 -81t-15 -85.5t-21 -86.5t-21 -76.5
q-4 -13 -6 -20z" />
    <glyph glyph-name="N" unicode="N" horiz-adv-x="607" 
d="M132 185q48 98 125 217q127 202 186 240q41 24 63.5 8t22.5 -62q0 -70 -59.5 -262.5t-66.5 -266.5q-4 -39 7 -45t40 19q21 18 51 57t46 63.5t60 92.5q4 5 10 1.5t2 -9.5q-6 -9 -25 -38t-25.5 -39t-22 -33.5t-24 -34.5t-21 -27t-22 -26t-19.5 -18q-40 -33 -66 -22
q-22 10 -31 42t-7 61t8 58q13 63 31.5 130t44 150t35.5 117q9 19 7 55t-31 17q-35 -23 -78.5 -81.5t-103.5 -153.5q-93 -145 -193 -377q-9 -21 -35 -21q-21 0 -21 18l1 7q11 36 38 122t42 136t32 122.5t24 132.5q8 23 0.5 70t-42.5 21q-28 -21 -46 -59q-47 -99 6 -151
q5 -5 0 -10t-10 0q-21 21 -27 51t-0.5 58.5t19.5 57.5q19 42 50 64q26 19 50.5 12t35.5 -37q23 -66 0.5 -187.5t-61.5 -239.5z" />
    <glyph glyph-name="O" unicode="O" horiz-adv-x="572" 
d="M572 246q-114 -134 -215 -118q44 71 70.5 161.5t26.5 172.5q0 86 -36 133q-30 40 -81 46t-93 -19q-49 -26 -76.5 -79t-29.5 -113q-3 -98 52 -192.5t144 -119.5q-30 -44 -66 -71q-43 -32 -84 -34t-83 37q-42 46 -44.5 138.5t22 176.5t56.5 125q5 6 2.5 11.5t-8.5 6
t-12 -4.5q-53 -48 -86.5 -131t-32 -174t48.5 -149q41 -50 101.5 -55.5t126.5 40.5q38 28 73 80q112 -22 235 123q3 3 1 7t-5.5 4.5t-6.5 -2.5zM343 131q-60 14 -104.5 67t-57.5 116q-13 52 -1.5 124t43.5 122q22 34 54 53.5t68 14.5t62 -41q33 -46 33 -125q0 -81 -26.5 -171
t-70.5 -160z" />
    <glyph glyph-name="P" unicode="P" horiz-adv-x="431" 
d="M75 13q-8 -21 -35 -20q-21 1 -21 16q0 3 1 7q110 324 137 519q9 23 1 70t-43 21q-25 -19 -46 -59q-13 -26 -18 -52.5t0 -53.5t24 -45q5 -5 0 -10t-10 0q-31 37 -30.5 79.5t22.5 87.5q19 42 50 64q26 19 50.5 12t35.5 -37q28 -74 -10 -242q1 2 15.5 36.5t19 44t19 40
t24.5 45t25 36t30.5 35t32.5 22.5q44 24 80.5 3t46 -67t-6.5 -100q-56 -154 -268 -154q-5 0 -7 3.5t0 7t7 3.5q71 0 118.5 21.5t79.5 76.5q39 66 29 137q-8 58 -44 62q-16 2 -35 -9q-32 -18 -65.5 -70t-65 -128.5t-55 -141t-51 -149t-37.5 -111.5z" />
    <glyph glyph-name="Q" unicode="Q" horiz-adv-x="551" 
d="M467 283q-29 -91 -86 -167t-131 -119q43 -15 70.5 -22.5t60 -12t54 3.5t32.5 28q2 4 6.5 3.5t6 -3.5t-0.5 -7q-14 -26 -40.5 -38t-49.5 -13t-62.5 9t-55.5 16t-52 20q-79 -36 -151 -21q-31 7 -43.5 27t2.5 37.5t52 17.5q45 -1 132 -32q63 43 115 119t79 163q16 52 25 102
t3 111t-37 96q-46 49 -124 18q-64 -26 -114 -92.5t-77 -142.5q-16 -45 -23 -91t1.5 -97.5t37.5 -84.5q22 -26 57 -38q4 -1 4.5 -5t-2.5 -6.5t-7 -1.5q-39 14 -63 42q-45 50 -45 130t27 157q28 79 80 148t119 95q87 35 151 -24q42 -38 59 -97t12.5 -115t-22.5 -113zM185 -5
q-7 3 -21.5 9t-23.5 9t-22.5 7t-24.5 6q-49 7 -58 -15q-7 -18 21 -32q8 -4 17 -6q52 -11 112 22z" />
    <glyph glyph-name="R" unicode="R" horiz-adv-x="510" 
d="M80 23q-8 -25 -35 -24q-22 1 -23 18q-1 5 1 10q35 104 55 169t44 162t35 177q8 23 0.5 70t-42.5 21q-25 -19 -46 -59t-21 -79.5t27 -71.5q5 -5 0 -10t-10 0q-31 37 -30.5 79.5t22.5 87.5q19 42 50 64q26 19 50.5 12t35.5 -37q24 -61 -1 -200q60 169 135 205q49 24 83 -6
q52 -52 31 -136.5t-83 -127.5q-48 -33 -104 -37q15 -9 25.5 -24t16.5 -28.5t10.5 -37.5t6 -36.5t3 -40.5t2.5 -36q5 -72 16 -79q7 -5 19.5 3t28 26t31 38.5t32.5 46.5t28.5 44.5t23.5 38t13 21.5q2 3 6 2.5t5.5 -3.5t-0.5 -7q-6 -10 -28 -46t-39 -62.5t-40 -57.5t-44.5 -48
t-39.5 -18q-31 -1 -49 25t-20 70q-1 18 -2 46.5t-1.5 43t-2.5 35.5t-5.5 32t-9.5 23.5t-16 19t-23 10.5q-6 1 -5 7.5t7 6.5q64 -4 111 33t66 102q22 62 10.5 112.5t-60.5 26.5q-24 -12 -46.5 -39t-42 -68.5t-29.5 -67t-26 -70.5q-13 -37 -45 -140t-61 -191z" />
    <glyph glyph-name="S" unicode="S" horiz-adv-x="462" 
d="M400 439q-1 -4 -5 -4.5t-6.5 2.5t-1.5 7q24 65 8 112q-26 76 -106 76q-68 0 -108 -62q-56 -89 8 -239q10 -22 29.5 -61t34.5 -72.5t23 -64.5q105 23 186 113q6 6 11 -2q2 -4 -1 -8q-45 -50 -89 -76.5t-104 -40.5q14 -69 -22 -124t-104 -65q-55 -8 -89 9q-29 15 -33 42.5
t16 53.5q43 57 163 85q-10 44 -40 105q-28 59 -38.5 83t-22.5 71t-9 88q6 76 49 127t121 54q48 2 86 -19.5t53 -67.5q17 -50 -9 -122zM77 -52q35 -13 69 -1q44 15 60 62.5t7 96.5q-115 -26 -155 -80q-18 -23 -13 -45.5t32 -32.5z" />
    <glyph glyph-name="T" unicode="T" horiz-adv-x="467" 
d="M367 566q44 59 115 71q73 11 109 -25q29 -28 7 -55q-20 -24 -73 -29q-55 -5 -130 7q-30 -52 -61 -209q-7 -36 -10 -48.5t-11.5 -48t-14 -51t-17 -45.5t-22 -45t-27 -36t-34.5 -31t-41 -17.5t-50 -7.5q-38 0 -63 25t-24 65q0 7 7 7t7 -7q-1 -45 34 -65.5t75 -0.5
q17 8 32.5 24t27 40t20.5 45t17.5 53t12.5 50t10.5 49.5t8.5 39.5q29 135 80 222q-23 6 -56 19.5t-57.5 24t-57.5 21t-57 11t-54 -7.5q-27 -10 -41.5 -33t-14.5 -46t14 -43.5t39 -25.5q4 -1 5 -5t-1.5 -7t-6.5 -2q-40 9 -56 45.5t-0.5 75.5t57.5 55q22 8 48 9t50 -3
t52.5 -12.5t51.5 -17t51.5 -19t48.5 -16.5zM409 555q75 -17 121 -12q61 6 62 36q0 23 -33 38t-70 2q-43 -13 -80 -64z" />
    <glyph glyph-name="U" unicode="U" horiz-adv-x="602" 
d="M370 337q50 112 62 154q7 23 36 26q27 3 29 -17q1 -5 -1 -12q-10 -35 -48.5 -155.5t-56.5 -185.5q-5 -16 -8.5 -33.5t-8.5 -49t2 -45.5t28 -3q54 30 198 230q3 3 7 2.5t5.5 -3.5t-0.5 -7q-2 -3 -16.5 -22.5t-21 -28t-22 -29.5t-25 -32.5t-25 -30t-27 -30.5t-24.5 -25
t-24.5 -22t-21.5 -14q-18 -10 -36 -5.5t-29 22.5q-24 40 -8 120q19 93 47 184q-26 -54 -41 -81.5t-49.5 -86t-71 -97t-73.5 -56.5q-41 -20 -64 8.5t-23 70.5q-1 74 41.5 259t43.5 193q9 22 2.5 69t-42.5 22q-28 -21 -47 -58q-13 -26 -19 -52t-1.5 -53t22.5 -46q5 -5 0 -10
t-10 0q-30 38 -28.5 81t24.5 86q22 44 51 63q27 19 50.5 11t35.5 -38q11 -38 10 -79.5t-14 -108t-26.5 -121t-29 -117.5t-20.5 -98q-6 -43 4.5 -62.5t36.5 -5.5q105 56 227 319z" />
    <glyph glyph-name="V" unicode="V" horiz-adv-x="518" 
d="M215 35q108 74 207 276q106 220 108 368q0 4 4 6t7 0t3 -7q-1 -72 -31 -173t-79 -200q-101 -205 -211 -282q-61 -43 -103 -24t-45 97q-4 77 31.5 251.5t36.5 188.5q1 10 1.5 18t0.5 25.5t-2.5 26t-7 20.5t-14 8.5t-22.5 -9.5q-26 -19 -44 -59q-20 -42 -20 -83t28 -68
q5 -5 0 -10t-10 0q-32 30 -32.5 79.5t21.5 87.5q20 42 49 65q17 13 34.5 14t31 -9t21.5 -29q11 -36 10.5 -79.5t-11 -109t-22 -121.5t-22.5 -118.5t-13 -98.5q-4 -61 22.5 -73t72.5 22z" />
    <glyph glyph-name="W" unicode="W" horiz-adv-x="734" 
d="M288 148q-4 50 10 106.5t45 83.5q16 13 31.5 13.5t17.5 -22.5q-2 -42 -52 -125q0 -140 46 -178q28 -23 70 7q63 45 136 162.5t113.5 257t6.5 222.5q-2 4 0.5 7.5t6 3.5t5.5 -4q29 -69 10.5 -168.5t-63 -198.5t-102.5 -180.5t-107 -114.5q-43 -29 -88 -15t-68 64
q-11 24 -16 58q-30 -39 -68 -68t-74.5 -40t-61 17t-24.5 98q0 58 18 140t39 158.5t25 102.5q9 22 2.5 69t-42.5 22q-27 -19 -47 -58q-21 -40 -22.5 -78.5t24.5 -72.5q3 -3 2 -6.5t-4.5 -4.5t-7.5 1q-30 38 -28.5 81t24.5 87q22 42 51 63q27 18 51 10.5t35 -37.5
q18 -39 10 -113t-24 -133t-35.5 -135t-23.5 -118q-7 -80 38 -76q44 5 110 74q20 22 31 38zM342 236q30 55 36 89q2 9 -1 9t-8 -8q-22 -32 -27 -90z" />
    <glyph glyph-name="X" unicode="X" horiz-adv-x="640" 
d="M7 -10q39 3 82 32t86.5 81t66 82t54.5 78q-3 261 -53 338q-36 54 -81 21q-39 -28 -51 -91q-5 -28 0 -54q1 -5 -2.5 -7t-7.5 -0.5t-4 5.5q-6 63 19.5 112.5t65 61.5t84.5 -16q37 -27 62 -102t26 -180q5 7 24.5 38t32.5 51t35.5 53t40 56t38 47.5t38.5 40.5t32 22
q4 2 7 -0.5t3 -6.5t-4 -6q-22 -13 -59.5 -59t-66 -89t-71 -109t-51.5 -79q-2 -67 6 -153t27 -124q14 -28 34.5 -33t42.5 14q14 12 28.5 27t29.5 34t26 32.5t27 37t22.5 34t23.5 36.5t20 31q2 3 6 2.5t5.5 -3.5t-0.5 -7q-4 -6 -20.5 -32t-23.5 -36.5t-23 -34t-27 -37.5
t-26 -33.5t-30 -35t-31 -28.5q-40 -33 -81.5 -19t-60.5 64q-29 76 -31 183q-31 -44 -55 -74t-66 -76t-85 -73t-83 -30q-5 0 -7 3t0 7t6 4z" />
    <glyph glyph-name="Y" unicode="Y" horiz-adv-x="574" 
d="M403 405q5 12 18 16t23.5 -2t9.5 -19q-14 -135 -67 -325q60 37 95.5 68.5t91.5 102.5q2 3 6 2.5t5.5 -3.5t-0.5 -7q-52 -68 -92 -103.5t-112 -79.5q-23 -75 -68.5 -151t-101.5 -100q-34 -16 -54 -3t-7 54q13 38 53.5 85t110.5 95q30 91 77 311q-118 -246 -212 -323
q-32 -30 -70 -27.5t-54 46.5q-16 43 3 142t50.5 210t35.5 141q9 22 2.5 69t-42.5 22q-28 -21 -47 -58q-13 -26 -19 -52t-1.5 -53t22.5 -46q5 -5 0 -10t-10 0q-30 38 -28.5 81t24.5 86q22 44 51 63q27 19 51 11t35 -38q9 -38 8 -79t-14 -107t-26 -120t-27.5 -118t-20.5 -100
q-7 -43 4 -62.5t37 -5.5q36 19 74 63t75 108.5t59 108.5t52 107zM197 -179q59 44 110 192q-117 -85 -143 -162q-9 -29 0.5 -38t32.5 8z" />
    <glyph glyph-name="Z" unicode="Z" horiz-adv-x="542" 
d="M104 494q-4 -7 -10 -4t-3 10q8 20 23.5 33t39 17.5t44 6.5t52 -2t49.5 -7t49 -9.5t39 -7.5q42 49 89 48q27 -1 36 -17.5t-7 -32.5q-24 -25 -83 -18q-11 -15 -51 -91.5t-80 -115.5q39 -24 60.5 -66.5t21.5 -90.5q115 46 169 99q3 3 7 1.5t5 -5t-2 -6.5q-60 -57 -179 -104
q-4 -66 -41 -139.5t-99.5 -129t-127.5 -62.5q-49 -7 -73.5 14t-19.5 62q5 38 29 73t52 58.5t73 48t74 37t73 29.5q13 109 -47 160q-35 -24 -66 -27q-25 -2 -36 15.5t-1.5 36.5t34.5 21q28 3 64 -10q25 32 60 101.5t56 98.5q-5 1 -34 7t-44.5 8t-44.5 6t-48 2t-41 -5.5
t-37 -14.5t-24 -28zM119 -175q70 31 124 115.5t68 166.5q-49 -18 -85.5 -34.5t-85 -45.5t-78 -68t-36.5 -84q-6 -40 20.5 -55t72.5 5zM200 271q20 4 43 28q-27 16 -46 16q-22 0 -24 -19q-1 -19 14 -24zM432 524q46 -3 65 16q8 8 4.5 16t-15.5 7q-24 0 -54 -39z" />
    <glyph glyph-name="a" unicode="a" 
d="M8 259q35 48 103 33q8 20 29.5 15.5t16.5 -27.5q-26 -84 -27 -103q-3 -62 75 24q23 27 36 45q2 4 6.5 3.5t6 -3.5t-0.5 -7q-21 -29 -51.5 -62t-53.5 -42q-44 -18 -56.5 11t-1.5 73q-14 -30 -29 -46q-16 -17 -34 -18t-31 19q-9 20 -5 43t17 42zM106 277q-27 0 -48.5 -21
t-26.5 -48q-2 -12 2 -22.5t15 -3.5q25 15 58 95z" />
    <glyph glyph-name="b" unicode="b" 
d="M229 555q-9 -64 -52 -138.5t-118 -128.5l-24 -88q26 50 44 69q43 48 68 17q23 -27 9 -81q-1 -7 -4 -14q32 8 51.5 19.5t37.5 35.5q2 3 6 2.5t5.5 -3.5t-0.5 -7q-20 -28 -43.5 -41t-62.5 -22q-17 -34 -51 -47q-31 -12 -46 0q-14 11 1 26t60 27q18 49 6 81q-7 22 -27 -2
q-20 -22 -55 -92l-13 -26q-10 -19 -33 -17q-20 2 -15 21q17 71 60 218q11 37 24.5 73t34.5 82.5t46.5 76.5t51.5 33q28 3 37 -20q7 -19 2 -54zM66 310q66 52 103.5 120t45.5 126q5 34 -1 50q-5 16 -21 4q-14 -11 -33 -43q-40 -68 -94 -257zM103 164q-26 -8 -39 -17
q-7 -6 -4 -9t11 -1q19 4 32 27z" />
    <glyph glyph-name="c" unicode="c" horiz-adv-x="193" 
d="M193 246q2 3 6.5 2.5t6 -3.5t-0.5 -7q-40 -60 -95 -90q-17 -9 -38 -14.5t-44.5 -1t-34.5 24.5q-17 33 0.5 75.5t48.5 60.5q39 23 69 -7q5 -5 -2 -11q-5 -1 -8 1q-14 12 -32.5 -5.5t-29.5 -46.5t-9 -50q2 -22 27.5 -24t42.5 9q53 27 93 87z" />
    <glyph glyph-name="d" unicode="d" horiz-adv-x="251" 
d="M251 246q3 4 7 3.5t5.5 -3.5t-0.5 -7q-40 -57 -75 -85q-11 -9 -24.5 -15t-28.5 -5.5t-25 11.5q-19 22 -17 63q-24 -40 -44 -53q-31 -19 -50 -2t-13 52q7 46 41.5 73.5t79.5 15.5q24 99 64.5 201t89.5 127q38 20 48.5 -3t3.5 -63q-10 -66 -51.5 -142.5t-107.5 -125.5
q-27 -85 -19 -126q2 -10 9.5 -12t15.5 2t15 10q38 31 76 84zM160 311q58 47 93.5 117t45.5 130q6 38 1.5 50t-17 1t-30.5 -42q-38 -65 -93 -256zM96 243l7 36q-35 5 -59 -37q-9 -15 -12 -37.5t7 -31.5q6 -2 14 4.5t17 20.5t14.5 23.5t11.5 21.5z" />
    <glyph glyph-name="e" unicode="e" horiz-adv-x="188" 
d="M57 254q38 11 45 22q3 4 1 7t-7 2q-19 -1 -39 -31zM188 246q3 4 7 3.5t5.5 -3.5t-0.5 -7q-45 -64 -101 -96q-23 -13 -49 -13.5t-45 14.5q-21 22 -20 50.5t16 53.5q14 25 39.5 40t55.5 12q13 -2 18.5 -10.5t-2.5 -21.5q-13 -19 -66 -32q-21 -32 -18 -59q2 -19 20.5 -25
t46.5 7q23 11 50 38t43 49z" />
    <glyph glyph-name="f" unicode="f" horiz-adv-x="185" 
d="M185 246q4 6 9.5 2.5t1.5 -9.5q-44 -68 -155 -70q26 -40 27 -96t-14 -89q-10 -31 -25 -44q-19 -18 -43 4q-25 22 -23 86q1 71 36 213q16 66 35 128t56.5 140t75.5 104q23 18 44 14t25 -34q2 -19 -1 -40q-9 -64 -51.5 -138.5t-117.5 -128.5q-20 -70 -29 -105q53 1 88 13
t61 50zM71 310q66 52 103.5 120t45.5 126q3 20 1 36q-4 35 -27 15q-9 -8 -17.5 -20.5t-17.5 -29.5t-16 -32.5t-15.5 -38.5t-14 -38.5t-13.5 -40.5t-11.5 -36t-10 -34t-7.5 -27zM30 160q-11 -50 -19 -105q-11 -80 -1 -102q3 -9 10 -2q12 10 21 38q14 30 13.5 82t-24.5 89z
" />
    <glyph glyph-name="g" unicode="g" 
d="M-125 -156q-17 65 40 143q42 58 155 122l24 94q-8 -14 -16 -25q-34 -45 -66 -45q-24 0 -31 28q-6 25 3.5 53t27.5 48q41 48 101 26l1 3q4 13 16 16.5t22 -3t8 -18.5q-10 -61 -33 -142q76 47 114 102q2 3 6.5 2.5t6 -3.5t-0.5 -7q-45 -61 -131 -114q-39 -140 -64 -196
q-52 -112 -121 -123q-49 -7 -62 39zM-77 -181q33 7 67 72q36 68 74 199q-99 -59 -138 -111q-53 -73 -38 -132q10 -33 35 -28zM33 161q10 -3 34 25q22 25 42 88q-33 5 -58 -28t-25 -67q0 -17 7 -18z" />
    <glyph glyph-name="h" unicode="h" horiz-adv-x="247" 
d="M226 556q-7 -64 -48.5 -139t-116.5 -130l-26 -102q41 66 65 89q18 20 37.5 14t16.5 -37q-2 -27 -13.5 -70.5t-14.5 -62.5q-3 -17 4 -16q7 2 26 23q37 39 91 121q6 8 12 2q4 -4 0 -9q-54 -82 -92 -124q-28 -30 -43 -34q-26 -5 -34 18q-13 33 16 143q4 17 1.5 17.5
t-14.5 -14.5q-29 -36 -67 -105q-8 -15 -20.5 -18.5t-21 3.5t-6.5 18q83 421 187 479q14 10 32.5 8.5t25.5 -19.5q8 -20 3 -55zM68 309q65 53 101 122t43 127q4 31 -2 48q-4 15 -18 7q-16 -10 -35 -45q-36 -66 -89 -259z" />
    <glyph glyph-name="i" unicode="i" horiz-adv-x="159" 
d="M159 246q3 3 6.5 1.5t4.5 -5t-2 -6.5q-2 -1 -12.5 -11.5t-21 -20t-24.5 -22t-28.5 -23t-27.5 -17.5q-23 -13 -43 -9.5t-25 23.5q-8 29 23 118q7 21 31 18q19 -2 18 -17q0 -3 -1 -5q-23 -75 -27 -89q-18 -74 116 53q11 10 13 12zM54 363q11 0 18.5 -7.5t7.5 -18.5t-8 -19
t-19 -8t-18.5 8t-7.5 19t8 18.5t19 7.5z" />
    <glyph glyph-name="j" unicode="j" horiz-adv-x="151" 
d="M20 129q-39 -148 -70 -213q-53 -106 -117 -114q-22 -2 -39 7.5t-21 32.5q-6 39 21 93q56 110 174 179q11 43 23.5 97.5t15.5 63.5q6 20 30 19q19 -1 19 -17l-1 -5q-11 -53 -30 -123q93 56 126 97q2 3 6 2.5t5.5 -4t-0.5 -7.5q-16 -20 -43.5 -42t-43 -32t-55.5 -34z
M-38 95q-106 -68 -156 -167q-24 -49 -19 -82q3 -19 16 -23.5t25 2.5q67 32 134 270zM46 363q11 0 19 -8t8 -19t-8.5 -19t-19.5 -8q-10 0 -17.5 8t-7.5 19t7.5 19t18.5 8z" />
    <glyph glyph-name="k" unicode="k" horiz-adv-x="235" 
d="M232 555q-9 -65 -51.5 -139.5t-117.5 -127.5q-18 -66 -26 -99q28 50 51 78q35 41 53 18q15 -21 -1 -57q-15 -35 -51 -47q5 -63 25 -77q11 -8 24 5q38 38 97 137q2 3 6 3.5t6 -3t0 -7.5t-16.5 -27t-21 -33t-19 -28t-23 -30.5t-20.5 -22.5q-15 -14 -33 -15.5t-34 14.5
q-23 24 -23 81q0 4 4 6q37 11 51 51q10 26 -1 28q-7 1 -19 -15q-16 -21 -65 -106q-7 -12 -19 -15t-21 3t-8 16q10 68 35 161.5t71.5 194.5t94.5 122q38 17 50 -15q6 -19 2 -54zM70 310q66 53 104 121.5t45 124.5q3 34 -2 49q-6 18 -23 3q-52 -45 -124 -298z" />
    <glyph glyph-name="l" unicode="l" horiz-adv-x="183" 
d="M66 310q66 52 103.5 120t45.5 126q4 30 -1 49q-7 18 -26 1q-10 -10 -27 -39q-41 -72 -95 -257zM229 555q-9 -65 -51.5 -139.5t-117.5 -127.5q-2 -9 -10.5 -40t-12 -45t-7 -37.5t-3.5 -42.5q0 -15 5.5 -20.5t14.5 -1t16 10t16 13.5q28 26 61.5 66.5t42.5 54.5q2 3 6 2.5
t5.5 -3.5t-0.5 -7q-69 -92 -105 -124q-27 -23 -38 -27q-21 -7 -36.5 1.5t-20.5 29.5q-16 59 20 189q16 58 34.5 113.5t56.5 123t76 81.5q36 13 46 -16q7 -19 2 -54z" />
    <glyph glyph-name="m" unicode="m" horiz-adv-x="347" 
d="M347 246q5 8 12 1q4 -3 0 -8q-26 -39 -63 -86t-61 -64q-15 -10 -29.5 -4t-19.5 24q-7 28 15 127q8 32 4.5 33.5t-16.5 -17.5q-2 -3 -5 -8q-5 -7 -15 -23.5t-18.5 -29t-12.5 -17.5q-11 -13 -22 -13t-17.5 13.5t-3.5 37.5q3 20 0 23.5t-15 -13.5q-8 -11 -45 -73
q-14 -24 -38.5 -21t-19.5 32q11 56 32 114q8 20 31 17q18 -3 17 -18q-1 -1 -1 -3q-32 -103 -29 -103q2 0 12 18q24 43 45 66q13 15 29.5 13.5t21.5 -20.5q6 -20 0 -50q3 4 26 40t35 48q21 21 39 6.5t11 -52.5q-2 -10 -12.5 -54t-12.5 -67q0 -8 2 -11t5.5 -2t7.5 5
q53 51 111 139z" />
    <glyph glyph-name="n" unicode="n" horiz-adv-x="267" 
d="M267 246q6 9 13 1q3 -4 0 -8q-75 -106 -93 -125q-11 -13 -23.5 -21.5t-28 -8.5t-22.5 19q-4 9 -4 23.5t2.5 31.5t5 30t6.5 29t5 19q6 30 1 32q-3 2 -15 -12q-17 -19 -41 -54t-35 -48q-14 -19 -33.5 -16t-19.5 31q0 39 25 110q7 19 30 18q19 -1 19 -15q0 -2 -1 -5l-18 -63
q-13 -45 -11 -45q3 0 21 26q43 61 64 82q23 26 45.5 14.5t16.5 -51.5q-3 -21 -12.5 -57t-12.5 -50q-4 -22 0 -26.5t25 16.5q17 19 39 49t35.5 49.5t16.5 24.5z" />
    <glyph glyph-name="o" unicode="o" horiz-adv-x="227" 
d="M95 163q-21 10 -28.5 36.5t-3.5 51.5q-33 -8 -37 -54q-2 -24 9.5 -40t32.5 -12q16 3 27 18zM69 272q9 20 26.5 22.5t28.5 -15.5q11 -22 8 -54t-15 -54q52 -12 110 75q2 4 6.5 3.5t6 -3.5t-0.5 -7q-25 -39 -59.5 -64t-69.5 -17q-26 -31 -61 -31q-30 0 -47 21t-16 51
q2 37 25.5 60.5t57.5 12.5zM103 175q11 18 15 48t-6 49q-7 11 -15 9t-14 -13q-10 -16 -5 -51t25 -42z" />
    <glyph glyph-name="p" unicode="p" horiz-adv-x="244" 
d="M-74 -127q-4 51 11 126.5t41 167.5t32 122q2 12 15 16.5t24 -1t9 -18.5l-6 -26q49 54 85 24q39 -34 3 -108q37 9 59 24t45 46q2 3 6 2.5t5.5 -3.5t-0.5 -7q-26 -37 -52 -53t-72 -26q-19 -28 -43 -37q-33 -13 -46 1q-12 14 21 30q14 7 34 13q18 46 15 83q-4 56 -52 -2
l-15 -20q-19 -76 -25 -98q21 -64 20 -140.5t-24 -139.5q-11 -26 -21 -38q-11 -12 -27 -9q-19 5 -29.5 25.5t-12.5 45.5zM13 104q-54 -194 -47 -253q4 -34 13 -34q3 0 6 4q9 9 17 33q18 48 22.5 112t-11.5 138zM87 148q-17 -6 -24 -10q-10 -7 -3 -8q2 0 5 1q13 4 22 17z" />
    <glyph glyph-name="q" unicode="q" horiz-adv-x="258" 
d="M107 284q-25 -4 -47.5 -26t-28.5 -48q-2 -11 0 -17t7.5 -5.5t10.5 6.5q9 10 19.5 26t22 36t16.5 28zM-13 205q3 51 43 77t88 18q2 3 6.5 11.5t7.5 12.5q7 13 27 9.5t15 -24.5q-14 -59 -48 -173q72 36 132 110q5 5 10 1t1 -10q-65 -79 -145 -118q20 -79 15.5 -149
t-23.5 -121q-9 -25 -20 -38q-12 -14 -32 -6q-28 11 -35 54t5 106.5t26 118t33.5 115.5t22.5 73q-4 -6 -16 -27t-19.5 -33t-20 -26t-23.5 -20q-19 -9 -35 1.5t-15 37.5zM115 97q-54 -187 -48 -246q4 -34 12 -34q3 0 7 4q8 10 17 32q17 47 21.5 109t-9.5 135z" />
    <glyph glyph-name="r" unicode="r" horiz-adv-x="188" 
d="M4 253q21 31 30 65q6 24 -7 23q-14 -2 -24 -24q-1 -3 -2 -5q-17 -45 3 -59zM17 247q6 -2 20.5 -6t22.5 -7.5t14 -11.5t3 -20q-1 -3 -11 -35t-12 -48q-6 -34 30 -6q43 33 104 133q3 4 7 4t6 -3.5t0 -7.5q-68 -107 -109 -138q-25 -19 -48 -18q-28 1 -32 37q-1 17 2 32.5
t10 34.5t8 24q3 9 -3 11q-22 8 -39 20q-19 14 -23 38.5t7 43.5q13 27 44 34q30 7 33 -20q1 -9 -2 -22q-8 -34 -32 -69z" />
    <glyph glyph-name="s" unicode="s" horiz-adv-x="226" 
d="M-41 50q10 35 74 72q-4 15 -12.5 40t-13 40.5t-8 41t2.5 42.5q11 46 56 63q38 15 71 -3t25 -60q-1 -4 -5 -5t-7 1.5t-2 6.5q5 29 -18 41.5t-46 -4.5q-19 -13 -26 -44q-2 -19 -3 -28t3.5 -28t7 -28t9 -27.5t9.5 -26.5q28 12 43.5 19.5t37 20t38 28t31.5 34.5q3 3 7 2.5
t5.5 -3.5t-0.5 -7q-21 -27 -49 -48t-48 -31.5t-61 -28.5q10 -43 -2 -78t-51 -48q-29 -9 -53 3.5t-15 42.5zM24 30q21 25 12 78q-57 -34 -64 -62q-7 -24 15 -29t37 13z" />
    <glyph glyph-name="t" unicode="t" horiz-adv-x="177" 
d="M-12 141q-1 108 80 339q-61 11 -82 -4q-3 -2 -7 -0.5t-4 5t3 6.5q25 19 95 6l5 15q7 21 31 17q19 -3 18 -16q0 -1 -1 -3l-7 -21q64 -11 92 10q3 3 7 1t4.5 -5.5t-2.5 -6.5q-32 -24 -105 -13q-77 -246 -88 -350q-2 -24 10 -22q8 2 32 23q29 26 64.5 69t43.5 55q3 4 7 3.5
t5.5 -3.5t-0.5 -7q-8 -12 -44.5 -56.5t-66.5 -70.5q-37 -35 -61 -28q-29 7 -29 57z" />
    <glyph glyph-name="u" unicode="u" horiz-adv-x="278" 
d="M278 246q2 4 6.5 3.5t6 -3.5t-0.5 -7q-22 -37 -57 -84t-59 -64q-16 -12 -34 -8.5t-26 23.5q-13 33 15 130q-48 -64 -75 -80q-32 -17 -47 -11.5t-17 28.5q-4 46 24 114q7 17 32 16q19 0 18 -15q0 -2 -1 -4q0 -1 -4 -10q-38 -107 -17 -105q8 0 21 13q26 24 49.5 55t28.5 44
q7 21 31 20q19 -1 18 -17q0 -2 -1 -5q-37 -122 -37 -165q0 -40 50.5 25.5t75.5 106.5z" />
    <glyph glyph-name="v" unicode="v" horiz-adv-x="289" 
d="M162 172q-13 -22 -29.5 -41.5t-38 -35.5t-44 -11t-39.5 36q-14 25 -15 74.5t8 84.5q3 14 17 19t25 -1t9 -20q-18 -91 -7 -143q15 -69 78 11q13 17 25 35q-36 37 -30.5 93.5t48.5 70.5q15 7 30 2t17 -22q5 -42 -44 -134q17 -21 40.5 -12t43 27.5t33.5 40.5q2 4 6.5 3.5
t6 -4t-0.5 -7.5q-71 -102 -139 -66zM163 204q43 84 39 118q-3 21 -24 0q-21 -19 -25 -56.5t10 -61.5z" />
    <glyph glyph-name="w" unicode="w" horiz-adv-x="412" 
d="M412 246q2 4 6.5 3.5t6 -4t-0.5 -8.5q-30 -42 -66.5 -55t-74.5 8q-35 -77 -74 -99q-40 -22 -65 -4.5t-35.5 52t-6.5 72.5q-11 -20 -33.5 -49t-37.5 -38q-32 -18 -44 14q-13 33 20 131q7 21 29 20q19 -1 19 -17l-1 -7q-23 -72 -26 -112q-2 -36 78 91q8 14 25 11.5
t17 -19.5q-1 -16 0.5 -36.5t5.5 -48.5t17 -42t33 -4q32 16 67 93q-30 21 -40 59q-8 30 2.5 62t37.5 44q38 18 48 -14q13 -41 -29 -142q21 -19 44.5 -15.5t44 18.5t33.5 36zM280 219q35 93 26 126q-7 18 -24 1q-23 -25 -22 -63t20 -64z" />
    <glyph glyph-name="x" unicode="x" horiz-adv-x="237" 
d="M237 246q3 4 7 3t5.5 -4t-0.5 -7q-83 -113 -127 -138q-67 -39 -102 55q-48 -41 -53 -71q-1 -4 -5 -5.5t-7 1t-2 6.5q6 35 62 84q-14 46 -17 94q-1 13 10.5 19.5t23.5 2.5t13 -19q2 -26 10 -66q75 57 85 85q1 4 5 4.5t6.5 -2.5t1.5 -7q-3 -8 -10 -17.5t-13.5 -16.5
t-18.5 -18t-17.5 -15.5t-19.5 -15.5t-16 -12q2 -9 3.5 -13t4.5 -13.5t5.5 -14.5l6.5 -13t8 -11.5t9.5 -6t11.5 -1.5t13 5q39 24 117 128z" />
    <glyph glyph-name="y" unicode="y" horiz-adv-x="260" 
d="M123 285q5 23 28 21q20 -2 21 -18v-5q-11 -55 -31 -134q81 48 119 97q3 4 7 3.5t5.5 -4t-0.5 -7.5q-39 -49 -136 -109q-14 -52 -24.5 -85.5t-33.5 -93t-52.5 -97t-62.5 -48.5q-26 -9 -46.5 0.5t-27.5 35.5q-17 65 39 146q25 36 62.5 65t93.5 63q16 56 29 117
q-46 -73 -73 -90q-19 -13 -35 -7.5t-18 28.5q-4 37 22 114q7 22 30 21q18 -1 18 -17q0 -3 -1 -7q-20 -81 -22 -92q-3 -30 15 -14q28 25 65 96zM-51 -176q61 36 129 271q-102 -62 -139 -116q-51 -76 -36 -133q11 -42 46 -22z" />
    <glyph glyph-name="z" unicode="z" horiz-adv-x="253" 
d="M11 238q-2 -3 -6 -2.5t-5.5 3.5t0.5 7q31 43 75 49q30 4 53.5 -12t19.5 -44q-1 -6 -2.5 -12t-5 -11t-5.5 -9t-7.5 -9t-8 -7.5t-9.5 -7t-9 -6t-10.5 -6.5t-9.5 -6q-10 -6 2 -11q35 -15 47 -37q83 53 123 129q4 6 10 3t3 -10q-50 -86 -129 -134q25 -67 -30.5 -145.5
t-123.5 -99.5q-27 -11 -54 -0.5t-27 40.5q0 53 63 110q14 13 32 26t30 20.5t35 21t32 18.5q-7 28 -37 39q-11 4 -15 10t-1 13t12 13q59 41 61 78q0 14 -9.5 22t-23.5 8q-38 0 -70 -41zM96 81q-96 -57 -122 -81q-57 -53 -57 -99q0 -12 6 -19t17 -6q36 4 73.5 41t60.5 83.5
t22 80.5z" />
    <glyph glyph-name="section" unicode="&#xa7;" horiz-adv-x="401" 
d="M185 -46q21 66 -44 168q-26 47 -36 66.5t-22.5 58t-12.5 72.5q0 57 31 101t81 55q-20 50 -20 98q0 63 33.5 108t97.5 51q40 4 72.5 -12t47.5 -53q16 -41 -1 -101q-2 -8 -11 -3q-4 2 -2 6q17 56 0 91q-12 30 -36.5 44.5t-54.5 12.5q-53 -4 -84 -56q-45 -79 19 -200
q9 -17 28 -48t34 -59.5t23 -59.5q16 -56 -11 -103t-82 -60q-16 -4 -39 -4q39 -71 36 -127q-3 -46 -28.5 -80t-73.5 -48q-87 -27 -130 40q-25 39 -18 100q1 6 7.5 5.5t6.5 -6.5q-8 -56 17 -89q35 -55 99 -39q52 15 73 71zM228 144q32 17 44 47t5.5 65t-17.5 63t-27 57
q-28 47 -43 81q-36 -13 -58 -50q-44 -78 19 -200q5 -11 38 -68q20 -1 39 5z" />
    <glyph glyph-name="f_f" unicode="&#xfb00;" horiz-adv-x="352" 
d="M352 246q4 6 9.5 2.5t1.5 -9.5q-27 -42 -58 -55.5t-90 -14.5q26 -40 27.5 -96t-14.5 -89q-10 -31 -25 -44q-19 -18 -43 4q-25 21 -23 86q1 68 30 182q-66 -73 -135 -73q26 -40 27.5 -96t-14.5 -89q-10 -31 -25 -44q-19 -18 -43 4q-25 21 -23 86q1 62 38 213
q71 291 157 351q23 18 44 14t25 -34q2 -19 -1 -40q-20 -145 -161 -246q-20 -70 -29 -105q75 -1 148 91q75 308 165 371q23 18 44 14t25 -34q2 -19 -1 -40q-9 -64 -51.5 -138.5t-117.5 -128.5q-20 -70 -29 -105q56 0 85.5 12t56.5 51zM245 310q66 52 103.5 120t45.5 126
q3 20 1 36q-4 35 -27 15q-9 -8 -17.5 -20.5t-17.5 -29.5t-16 -32.5t-15.5 -38.5t-14 -38.5t-13.5 -40.5t-11.5 -36t-10 -34t-7.5 -27zM62 280q124 98 141 225q3 20 1 36q-4 35 -27 15q-11 -10 -22 -26t-21 -38.5t-18 -41.5t-17 -48t-14 -44t-13 -43.5t-10 -34.5zM204 160
q-11 -50 -19 -105q-11 -80 -1 -102q3 -9 10 -2q12 10 21 38q15 31 14 82.5t-25 88.5zM21 130q-11 -50 -19 -105q-11 -80 -1 -102q3 -9 10 -2q12 10 21 38q15 31 14 82.5t-25 88.5z" />
    </font>
</defs>
</svg>
