<?xml version="1.0" encoding="utf-8"?>
<!-- Generator: Adobe Illustrator 16.0.0, SVG Export Plug-In . SVG Version: 6.00 Build 0)  -->
<!DOCTYPE svg PUBLIC "-//W3C//DTD SVG 1.1//EN" "http://www.w3.org/Graphics/SVG/1.1/DTD/svg11.dtd">
<svg version="1.1" id="Layer_1" xmlns="http://www.w3.org/2000/svg" xmlns:xlink="http://www.w3.org/1999/xlink" x="0px" y="0px"
	 width="44.5px" height="42.311px" viewBox="0 0 44.5 42.311" enable-background="new 0 0 44.5 42.311" xml:space="preserve">
<g>
	<defs>
		<path id="SVGID_1_" d="M1-84.5h121c3.313,0,6,2.687,6,6v31c0,3.313-2.687,6-6,6H1c-3.313,0-6-2.687-6-6v-31
			C-5-81.813-2.313-84.5,1-84.5z"/>
	</defs>
	<clipPath id="SVGID_2_">
		<use xlink:href="#SVGID_1_"  overflow="visible"/>
	</clipPath>
	<g clip-path="url(#SVGID_2_)">
		<defs>
			<rect id="SVGID_3_" x="-186" y="-279.5" width="378" height="291"/>
		</defs>
		<clipPath id="SVGID_4_">
			<use xlink:href="#SVGID_3_"  overflow="visible"/>
		</clipPath>
	</g>
</g>
<g>
	<defs>
		<rect id="SVGID_5_" x="19" y="-71.5" width="17" height="17"/>
	</defs>
	<clipPath id="SVGID_6_">
		<use xlink:href="#SVGID_5_"  overflow="visible"/>
	</clipPath>
	<g clip-path="url(#SVGID_6_)">
		<defs>
			<rect id="SVGID_7_" x="-186" y="-279.5" width="378" height="291"/>
		</defs>
		<clipPath id="SVGID_8_">
			<use xlink:href="#SVGID_7_"  overflow="visible"/>
		</clipPath>
	</g>
</g>
<g>
	<defs>
		<path id="SVGID_15_" d="M24.688-58.063l-2.124-2.124c-0.097-0.097-0.229-0.156-0.376-0.156c-0.293,0-0.531,0.238-0.531,0.531
			c0,0.146,0.06,0.279,0.155,0.375l2.125,2.125c0.097,0.097,0.229,0.156,0.376,0.156c0.294,0,0.531-0.238,0.531-0.531
			C24.844-57.834,24.784-57.967,24.688-58.063"/>
	</defs>
	<clipPath id="SVGID_10_">
		<use xlink:href="#SVGID_15_"  overflow="visible"/>
	</clipPath>
	<g clip-path="url(#SVGID_10_)">
		<defs>
			<rect id="SVGID_17_" x="-186" y="-279.5" width="378" height="291"/>
		</defs>
		<clipPath id="SVGID_12_">
			<use xlink:href="#SVGID_17_"  overflow="visible"/>
		</clipPath>
	</g>
</g>
<path fill="#58595B" d="M40.729,9.615c-0.68-0.003-1.359-0.003-2.042-0.003c-1.421,0-2.846,0.003-4.269,0.003
	c-0.478,0.003-0.956,0.003-1.437,0.003c-0.958,0-1.917-0.003-2.875-0.003h-0.895l0.499-0.741c0.162-0.244,0.39-0.374,0.52-0.441l0,0
	c1.007-0.523,1.934-1.094,2.651-1.894l0,0c0.559-0.628,0.863-1.249,0.863-1.941c0-0.24-0.036-0.496-0.121-0.771
	c-0.21-0.69-0.677-1.229-1.275-1.762c-0.967-0.864-2.018-1.277-3.081-1.278c-0.866,0-1.754,0.274-2.625,0.857
	c-1.568,1.047-2.671,2.519-3.578,4.211l0,0c-0.121,0.223-0.239,0.465-0.403,0.791l-0.418,0.824l-0.429-0.816
	c-0.194-0.37-0.335-0.641-0.477-0.906c-0.798-1.483-1.768-2.794-3.08-3.794c-0.943-0.717-1.909-1.167-2.998-1.167
	c-0.2,0-0.409,0.014-0.621,0.048c-1.485,0.232-2.571,1.046-3.453,2.271c-0.324,0.457-0.507,0.942-0.507,1.411
	c0.002,0.257,0.055,0.514,0.174,0.774h0.001c0.28,0.617,0.7,1.23,1.181,1.651c0.74,0.652,1.659,1.175,2.575,1.803l1.269,0.869
	h-1.537c-0.672,0-1.349,0-2.024,0c-0.34,0-0.679,0-1.018,0c-0.136,0-0.27,0-0.404,0c-1.258,0-2.516-0.002-3.772-0.002
	c-1.188,0-2.377,0.002-3.564,0.009c-0.601,0.005-1.109,0.23-1.474,0.594c-0.365,0.364-0.587,0.867-0.588,1.454v0.001
	c-0.002,1.134-0.005,2.268-0.005,3.4c0,1.052,0.001,2.104,0.006,3.153c0.004,0.484,0.12,0.858,0.327,1.163
	c0.208,0.305,0.518,0.553,0.957,0.738c0.162,0.065,0.312,0.148,0.442,0.284c0.132,0.134,0.214,0.315,0.244,0.477
	c0.021,0.106,0.026,0.208,0.026,0.311h0v0.002V21.2v0.001v0.001c-0.005,3.142-0.006,6.283-0.006,9.423
	c0,2.876,0.001,5.753,0.006,8.63c0.003,0.726,0.235,1.276,0.618,1.657c0.385,0.38,0.938,0.61,1.661,0.611c1.74,0,3.478,0,5.216,0
	c9.243,0,18.487-0.001,27.73-0.003c0.703-0.001,1.251-0.234,1.636-0.616c0.382-0.383,0.614-0.929,0.617-1.629
	c0.003-2.277,0.003-4.554,0.003-6.831c0-2.276,0-4.554,0-6.831c0-1.626,0-3.25,0-4.862v-0.335l0.314-0.113
	c0.692-0.25,1.09-0.572,1.338-0.956s0.361-0.874,0.361-1.501c0-0.057-0.001-0.113-0.002-0.172c-0.024-0.736-0.031-1.471-0.031-2.202
	c0-1.051,0.015-2.097,0.015-3.141c0-0.163,0-0.327-0.001-0.49c-0.005-0.739-0.228-1.272-0.591-1.638
	C42.011,9.841,41.474,9.621,40.729,9.615z M13.429,6.714c-0.471-0.322-0.889-0.728-1.241-1.157l0,0
	c-0.241-0.295-0.411-0.628-0.412-1.001c0-0.192,0.048-0.382,0.127-0.552c0.078-0.172,0.186-0.328,0.314-0.479l0,0
	c0.436-0.518,0.896-0.927,1.392-1.214c0.493-0.285,1.028-0.443,1.577-0.441c0.804,0,1.608,0.33,2.398,0.946l-0.011-0.009
	l0.011,0.009c1.419,1.104,2.362,2.56,3.111,4.092l0,0c0.291,0.599,0.516,1.205,0.756,1.776l0.11,0.26l-0.174,0.221
	c-0.034,0.045-0.069,0.089-0.106,0.135l-0.188,0.239l-0.295-0.069c-0.604-0.139-1.231-0.26-1.866-0.437
	C17.035,8.506,15.131,7.878,13.429,6.714z M21.658,20.803c0,6.373,0,12.725,0,19.121v0.447l-0.447,0.028
	c-0.14,0.008-0.307,0.027-0.498,0.027c-0.853,0-1.703,0-2.556,0c-4.113,0-8.225-0.002-12.337-0.003l0,0
	c-0.189,0-0.359-0.011-0.532-0.059c-0.171-0.046-0.357-0.147-0.482-0.31c-0.084-0.105-0.137-0.225-0.169-0.341
	c-0.042-0.154-0.051-0.305-0.052-0.468c0-1.906,0-3.813,0-5.72c0-4.111,0.001-8.219,0.001-12.328c0-0.113,0-0.227,0-0.396v-0.477
	h0.477c5.404,0,10.742,0,16.118,0h0.478V20.803z M21.674,11.199c0,2.516,0,4.99,0,7.505v0.446l-0.445,0.03
	c-0.163,0.011-0.328,0.031-0.525,0.031l0,0c-3.04,0.002-6.078,0.002-9.117,0.002c-2.566,0-5.135,0-7.702,0
	c-0.165-0.002-0.307-0.004-0.446-0.022c-0.139-0.02-0.283-0.052-0.43-0.14c-0.095-0.057-0.184-0.141-0.248-0.235
	c-0.085-0.128-0.125-0.259-0.147-0.383c-0.03-0.165-0.034-0.329-0.035-0.521l0,0c0-1.003-0.002-2.007-0.002-3.01
	c0-1.002,0.001-2.006,0.003-3.008c0-0.184,0.01-0.347,0.056-0.517c0.044-0.166,0.145-0.351,0.305-0.475
	c0.105-0.083,0.224-0.136,0.337-0.165c0.152-0.04,0.297-0.05,0.456-0.051c1.316,0,2.633,0,3.951,0c4.421,0,8.841,0.003,13.263,0.005
	l0,0c0.07,0,0.128,0.007,0.173,0.013c0.045,0.009,0.084,0.015,0.135,0.021l0.419,0.052V11.199z M22.995,8.774
	c0.188-0.479,0.345-0.944,0.558-1.414l0,0c0.777-1.709,1.77-3.328,3.33-4.548l0,0c0.782-0.612,1.583-0.947,2.391-0.947
	c0.531-0.002,1.051,0.148,1.534,0.42c0.485,0.271,0.94,0.663,1.377,1.16c0.146,0.167,0.269,0.337,0.361,0.523
	c0.089,0.184,0.146,0.387,0.145,0.6c0.001,0.202-0.051,0.402-0.139,0.583c-0.091,0.182-0.213,0.346-0.36,0.507l0,0l0,0v0.001
	c-0.486,0.525-1.054,1.019-1.689,1.394c-2.091,1.222-4.367,1.911-6.69,2.378l0,0l-0.001,0.001c-0.05,0.008-0.099,0.013-0.136,0.013
	c-0.128-0.003-0.167-0.016-0.264-0.021l-0.653-0.039L22.995,8.774z M39.879,20.803c0,0.18,0,0.354,0,0.527
	c0,5.919,0,11.838,0,17.757c0,0.169-0.004,0.315-0.024,0.459c-0.021,0.145-0.058,0.291-0.145,0.437
	c-0.057,0.095-0.14,0.186-0.233,0.248c-0.126,0.089-0.26,0.133-0.387,0.159c-0.17,0.031-0.339,0.037-0.533,0.037
	c-4.915,0-9.831,0-14.747-0.002c-0.164,0-0.327,0-0.529,0h-0.476v-0.476c0-6.378,0-12.732,0-19.146v-0.477h0.476
	c5.371,0,10.711,0,16.12,0h0.479V20.803z M41.885,11.986L41.885,11.986L41.885,11.986c0,0.384,0,0.767,0,1.15
	c0,0.57,0,1.139,0,1.709c0,1.054-0.001,2.106-0.005,3.159l0,0c-0.002,0.189-0.009,0.354-0.056,0.528
	c-0.043,0.17-0.154,0.367-0.328,0.487c-0.114,0.08-0.234,0.124-0.35,0.149c-0.152,0.034-0.301,0.04-0.466,0.04
	c-3.384,0.002-6.768,0.004-10.152,0.004c-2.32,0-4.641-0.002-6.961-0.002c-0.14-0.001-0.221-0.017-0.342-0.026l-0.436-0.037v-0.438
	c0-2.518,0-4.994,0-7.522v-0.452l0.452-0.023c0.179-0.01,0.359-0.026,0.562-0.026c5.591,0,11.181,0.001,16.77,0.004
	c0.162,0.001,0.306,0.004,0.445,0.023c0.141,0.02,0.282,0.054,0.426,0.139c0.095,0.057,0.184,0.138,0.248,0.23
	c0.085,0.125,0.128,0.255,0.152,0.378c0.032,0.166,0.038,0.328,0.039,0.516V11.986z"/>
</svg>
